<?xml version="1.0" encoding="UTF-8" standalone="no"?>
<!-- Created with Inkscape (http://www.inkscape.org/) -->

<svg
   xmlns:dc="http://purl.org/dc/elements/1.1/"
   xmlns:cc="http://creativecommons.org/ns#"
   xmlns:rdf="http://www.w3.org/1999/02/22-rdf-syntax-ns#"
   xmlns:svg="http://www.w3.org/2000/svg"
   xmlns="http://www.w3.org/2000/svg"
   xmlns:sodipodi="http://sodipodi.sourceforge.net/DTD/sodipodi-0.dtd"
   xmlns:inkscape="http://www.inkscape.org/namespaces/inkscape"
   width="320"
   height="400"
   id="svg2"
   version="1.1"
   inkscape:version="0.47 r22583"
   sodipodi:docname="sex_music.svg"
   inkscape:export-filename="/home/bigml/web/moon/res/xx/sex_music.png"
   inkscape:export-xdpi="90"
   inkscape:export-ydpi="90">
  <defs
     id="defs4">
    <inkscape:perspective
       sodipodi:type="inkscape:persp3d"
       inkscape:vp_x="0 : 526.18109 : 1"
       inkscape:vp_y="0 : 1000 : 0"
       inkscape:vp_z="744.09448 : 526.18109 : 1"
       inkscape:persp3d-origin="372.04724 : 350.78739 : 1"
       id="perspective10" />
  </defs>
  <sodipodi:namedview
     id="base"
     pagecolor="#ffffff"
     bordercolor="#666666"
     borderopacity="1.0"
     inkscape:pageopacity="0.0"
     inkscape:pageshadow="2"
     inkscape:zoom="1.4525"
     inkscape:cx="160"
     inkscape:cy="200"
     inkscape:document-units="px"
     inkscape:current-layer="layer1"
     showgrid="false"
     inkscape:window-width="1440"
     inkscape:window-height="828"
     inkscape:window-x="0"
     inkscape:window-y="0"
     inkscape:window-maximized="1" />
  <metadata
     id="metadata7">
    <rdf:RDF>
      <cc:Work
         rdf:about="">
        <dc:format>image/svg+xml</dc:format>
        <dc:type
           rdf:resource="http://purl.org/dc/dcmitype/StillImage" />
        <dc:title></dc:title>
      </cc:Work>
    </rdf:RDF>
  </metadata>
  <g
     inkscape:label="Layer 1"
     inkscape:groupmode="layer"
     id="layer1"
     transform="translate(0,-652.36218)">
    <path
       style="fill:#000000;fill-opacity:1;fill-rule:evenodd;stroke:#000000;stroke-width:8;stroke-linejoin:miter;stroke-miterlimit:4;stroke-opacity:1;stroke-dasharray:none;stroke-dashoffset:0"
       d="m 102.65706,915.78701 c -63.397289,75.33548 94.98187,154.29139 80.2254,45.19245 29.09553,-41.50162 90.19654,-74.14242 36.28915,-123.55407 -45.69736,-57.70109 89.73935,-73.65421 32.95781,-123.57075 -36.6824,32.92508 -89.0026,129.29659 -121.69272,106.90246 -10.3871,-1.03989 -8.59458,20.23714 -8.45487,41.63759 0.13972,21.40046 -3.9913,47.8784 -18.3717,42.37821 -3.727986,-1.42587 3.78436,-11.36035 3.78436,-11.36035 L 81.17884,904.0522 58.747551,903.3315 C 3.5608167,901.55839 71.414601,770.52186 149.7676,806.37568 175.59592,785.23344 255.86859,658.6566 273.70718,733.98344 c -21.79657,40.88274 -96.18214,95.82341 -20.84356,128.36998 17.42023,53.56176 -81.72416,72.65409 -62.61951,131.67142 -41.57912,82.59906 -237.946996,-86.23965 -137.814246,-80.91081 l 25.113598,1.33649 c 0,0 5.853915,12.28268 11.556799,12.66824 5.876269,0.39728 13.556799,-11.33175 13.556799,-11.33175 z"
       id="path2824"
       sodipodi:nodetypes="cccccsaccsccccscac" />
    <path
       sodipodi:type="arc"
       style="fill:none;stroke:#000000;stroke-width:8;stroke-linejoin:miter;stroke-miterlimit:4;stroke-opacity:1;stroke-dasharray:none;stroke-dashoffset:0"
       id="path3615"
       sodipodi:cx="175.5"
       sodipodi:cy="231"
       sodipodi:rx="18.5"
       sodipodi:ry="26"
       d="m 194,231 a 18.5,26 0 1 1 -37,0 18.5,26 0 1 1 37,0 z"
       transform="translate(-26,694.36218)" />
    <path
       style="fill:#000000;fill-opacity:1;stroke:#000000;stroke-width:6.70616484;stroke-linejoin:miter;stroke-miterlimit:4;stroke-opacity:1;stroke-dasharray:none;stroke-dashoffset:0"
       id="path3619"
       d="m 120.0646,956.7942 c 2.63487,0.79143 5.40684,1.38407 8.11319,2.07078 2.32013,0.6574 4.53865,1.41773 6.74645,2.20098 1.58954,0.75859 3.2552,1.45863 4.79575,2.25352 1.545,0.70001 2.93024,1.52645 4.51109,2.19971 1.52933,0.78127 3.16526,1.48527 4.82775,2.15438 1.3827,0.71634 2.85283,1.3708 4.3571,1.98635 1.20391,0.71195 2.74195,1.12207 4.00998,1.78374 0.73189,0.55303 0.37013,0.29856 1.07666,0.76798 0,0 -13.57322,5.04814 -13.57322,5.04814 l 0,0 c -0.66185,-0.45275 -0.34744,-0.24039 -0.94187,-0.63788 -1.29934,-0.58908 -2.72223,-1.07193 -3.92803,-1.7381 -1.46419,-0.64755 -2.95529,-1.27255 -4.3413,-1.98375 -1.63054,-0.70993 -3.2941,-1.39312 -4.82624,-2.18386 -1.56738,-0.71691 -3.04863,-1.49684 -4.57137,-2.24746 -1.51624,-0.74061 -3.09405,-1.43358 -4.65951,-2.13448 -2.10467,-0.78996 -4.29105,-1.49011 -6.54458,-2.1083 -2.71929,-0.66641 -5.40228,-1.39353 -8.17737,-1.96893 0,0 13.12552,-5.46282 13.12552,-5.46282 z" />
    <path
       style="fill:none;stroke:#000000;stroke-width:1;stroke-linecap:butt;stroke-linejoin:miter;stroke-opacity:1;stroke-miterlimit:4;stroke-dasharray:none"
       d="m 129,955.36218 129,-236"
       id="path3627"
       sodipodi:nodetypes="cc" />
    <path
       style="fill:none;stroke:#000000;stroke-width:1px;stroke-linecap:butt;stroke-linejoin:miter;stroke-opacity:1"
       d="m 136.75559,958.79594 121,-238.00002"
       id="path3629"
       sodipodi:nodetypes="cc" />
    <path
       style="fill:none;stroke:#000000;stroke-width:1px;stroke-linecap:butt;stroke-linejoin:miter;stroke-opacity:1"
       d="m 141.93631,961.73054 118,-244.00002"
       id="path3631"
       sodipodi:nodetypes="cc" />
    <path
       style="fill:#000000;fill-opacity:1;fill-rule:evenodd;stroke:#000000;stroke-width:0.76972246;stroke-linejoin:miter;stroke-miterlimit:4;stroke-opacity:1;stroke-dasharray:none;stroke-dashoffset:0"
       d="m 85.604385,913.68824 c -1.47264,-5.68482 8.63443,-8.53384 10.69729,-14.15653 0.23414,-1.82619 1.85312,-3.31564 3.68148,-3.6248 2.223215,-0.85208 4.343215,-1.93447 6.441015,-3.04314 1.35616,0.68515 0.31911,2.26876 -0.0598,3.2458 -1.99761,4.8942 -5.5217,13.05861 -9.126035,16.88436 -1.75185,1.75571 -4.40916,1.98433 -6.5806,3.01593 -1.63687,0.62954 -4.59697,-0.55973 -5.05339,-2.32162 z"
       id="path3656"
       sodipodi:nodetypes="ccccccca" />
    <text
       xml:space="preserve"
       style="font-size:18px;font-style:normal;font-variant:normal;font-weight:bold;font-stretch:normal;text-align:start;line-height:100%;writing-mode:lr-tb;text-anchor:start;fill:#000000;fill-opacity:1;stroke:#000000;stroke-opacity:1;font-family:unifont;-inkscape-font-specification:unifont Bold"
       x="206"
       y="1003.8207"
       id="text3672"
       sodipodi:linespacing="100%"><tspan
         sodipodi:role="line"
         id="tspan3674"
         x="206"
         y="1003.8207">Sex &amp; Music</tspan></text>
  </g>
</svg>
