<?xml version="1.0" encoding="UTF-8" standalone="no"?>
<!-- Created with Inkscape (http://www.inkscape.org/) -->

<svg
   xmlns:dc="http://purl.org/dc/elements/1.1/"
   xmlns:cc="http://creativecommons.org/ns#"
   xmlns:rdf="http://www.w3.org/1999/02/22-rdf-syntax-ns#"
   xmlns:svg="http://www.w3.org/2000/svg"
   xmlns="http://www.w3.org/2000/svg"
   xmlns:xlink="http://www.w3.org/1999/xlink"
   xmlns:sodipodi="http://sodipodi.sourceforge.net/DTD/sodipodi-0.dtd"
   xmlns:inkscape="http://www.inkscape.org/namespaces/inkscape"
   width="239.87051"
   height="173.49734"
   id="svg2"
   version="1.1"
   inkscape:version="0.47 r22583"
   sodipodi:docname="icons.svg">
  <defs
     id="defs4">
    <linearGradient
       id="linearGradient5507">
      <stop
         style="stop-color:#ffffff;stop-opacity:1;"
         offset="0"
         id="stop5509" />
      <stop
         id="stop5511"
         offset="0"
         style="stop-color:#ffffff;stop-opacity:0.66666669;" />
      <stop
         style="stop-color:#9dbbe1;stop-opacity:0.08943089;"
         offset="1"
         id="stop5513" />
    </linearGradient>
    <linearGradient
       id="linearGradient5488">
      <stop
         style="stop-color:#fb9e00;stop-opacity:1;"
         offset="0"
         id="stop5490" />
      <stop
         style="stop-color:#f44f00;stop-opacity:1;"
         offset="1"
         id="stop5492" />
    </linearGradient>
    <linearGradient
       id="linearGradient3940">
      <stop
         id="stop3942"
         offset="0"
         style="stop-color:#013397;stop-opacity:1" />
      <stop
         id="stop3944"
         offset="1"
         style="stop-color:#0169c8;stop-opacity:1" />
    </linearGradient>
    <linearGradient
       id="linearGradient3917">
      <stop
         style="stop-color:#edf4fd;stop-opacity:0.52845526;"
         offset="0"
         id="stop3919" />
      <stop
         style="stop-color:#175bb3;stop-opacity:0;"
         offset="1"
         id="stop3921" />
    </linearGradient>
    <inkscape:perspective
       sodipodi:type="inkscape:persp3d"
       inkscape:vp_x="0 : 526.18109 : 1"
       inkscape:vp_y="0 : 1000 : 0"
       inkscape:vp_z="744.09448 : 526.18109 : 1"
       inkscape:persp3d-origin="372.04724 : 350.78739 : 1"
       id="perspective10" />
    <inkscape:perspective
       id="perspective2884"
       inkscape:persp3d-origin="0.5 : 0.33333333 : 1"
       inkscape:vp_z="1 : 0.5 : 1"
       inkscape:vp_y="0 : 1000 : 0"
       inkscape:vp_x="0 : 0.5 : 1"
       sodipodi:type="inkscape:persp3d" />
    <inkscape:perspective
       id="perspective2958"
       inkscape:persp3d-origin="0.5 : 0.33333333 : 1"
       inkscape:vp_z="1 : 0.5 : 1"
       inkscape:vp_y="0 : 1000 : 0"
       inkscape:vp_x="0 : 0.5 : 1"
       sodipodi:type="inkscape:persp3d" />
    <inkscape:perspective
       id="perspective3071"
       inkscape:persp3d-origin="0.5 : 0.33333333 : 1"
       inkscape:vp_z="1 : 0.5 : 1"
       inkscape:vp_y="0 : 1000 : 0"
       inkscape:vp_x="0 : 0.5 : 1"
       sodipodi:type="inkscape:persp3d" />
    <inkscape:perspective
       id="perspective3137"
       inkscape:persp3d-origin="0.5 : 0.33333333 : 1"
       inkscape:vp_z="1 : 0.5 : 1"
       inkscape:vp_y="0 : 1000 : 0"
       inkscape:vp_x="0 : 0.5 : 1"
       sodipodi:type="inkscape:persp3d" />
    <linearGradient
       y2="8.5619125"
       x2="-13.231469"
       y1="53.499222"
       x1="-10.321859"
       gradientTransform="translate(-31.675535,-0.03639532)"
       gradientUnits="userSpaceOnUse"
       id="linearGradient3490"
       xlink:href="#linearGradient3421"
       inkscape:collect="always" />
    <linearGradient
       y2="171.82336"
       x2="-48.793369"
       y1="122.0367"
       x1="-48.793369"
       gradientTransform="translate(-54.959304,-5.819217)"
       gradientUnits="userSpaceOnUse"
       id="linearGradient3478"
       xlink:href="#linearGradient3421"
       inkscape:collect="always" />
    <linearGradient
       gradientTransform="translate(-54.959294,-5.819217)"
       y2="184.75496"
       x2="-96.963577"
       y1="184.75496"
       x1="11.015276"
       gradientUnits="userSpaceOnUse"
       id="linearGradient3476"
       xlink:href="#linearGradient3449"
       inkscape:collect="always" />
    <linearGradient
       gradientUnits="userSpaceOnUse"
       y2="184.75496"
       x2="-96.963577"
       y1="184.75496"
       x1="11.015276"
       id="linearGradient3447"
       xlink:href="#linearGradient3449"
       inkscape:collect="always" />
    <linearGradient
       y2="171.82336"
       x2="-48.793369"
       y1="122.0367"
       x1="-48.793369"
       gradientTransform="translate(-3.4305288e-6,-4.9227357e-7)"
       gradientUnits="userSpaceOnUse"
       id="linearGradient3439"
       xlink:href="#linearGradient3421"
       inkscape:collect="always" />
    <linearGradient
       gradientTransform="translate(-3.5402576e-6,-5.3158797e-7)"
       gradientUnits="userSpaceOnUse"
       y2="8.5619125"
       x2="-13.231469"
       y1="53.499222"
       x1="-10.321859"
       id="linearGradient3427"
       xlink:href="#linearGradient3421"
       inkscape:collect="always" />
    <inkscape:perspective
       id="perspective259"
       inkscape:persp3d-origin="10.485 : 37.445999 : 1"
       inkscape:vp_z="20.969999 : 56.168999 : 1"
       inkscape:vp_y="0 : 1000 : 0"
       inkscape:vp_x="0 : 56.168999 : 1"
       sodipodi:type="inkscape:persp3d" />
    <linearGradient
       id="linearGradient3421">
      <stop
         id="stop3423"
         offset="0"
         style="stop-color:#ffffff;stop-opacity:0.60162604;" />
      <stop
         style="stop-color:#ffeed8;stop-opacity:0;"
         offset="0.5"
         id="stop5505" />
      <stop
         id="stop3425"
         offset="1"
         style="stop-color:#ffeef0;stop-opacity:0;" />
    </linearGradient>
    <linearGradient
       inkscape:collect="always"
       id="linearGradient3449">
      <stop
         style="stop-color:#aad400;stop-opacity:1"
         offset="0"
         id="stop3451" />
      <stop
         style="stop-color:#ffeeaa;stop-opacity:0;"
         offset="1"
         id="stop3453" />
    </linearGradient>
    <linearGradient
       inkscape:collect="always"
       xlink:href="#linearGradient5488"
       id="linearGradient5494"
       x1="-150.66277"
       y1="-35.774368"
       x2="-150.66277"
       y2="145.90721"
       gradientUnits="userSpaceOnUse" />
    <linearGradient
       inkscape:collect="always"
       xlink:href="#linearGradient5488"
       id="linearGradient5682"
       gradientUnits="userSpaceOnUse"
       x1="-150.66277"
       y1="-35.774368"
       x2="-150.66277"
       y2="145.90721" />
    <linearGradient
       inkscape:collect="always"
       xlink:href="#linearGradient5488"
       id="linearGradient5686"
       gradientUnits="userSpaceOnUse"
       x1="-150.66277"
       y1="-35.774368"
       x2="-150.66277"
       y2="145.90721" />
    <linearGradient
       inkscape:collect="always"
       xlink:href="#linearGradient5507"
       id="linearGradient5707"
       gradientUnits="userSpaceOnUse"
       gradientTransform="matrix(0.91463415,0,0,0.91463415,56.0911,367.15131)"
       x1="-138.55066"
       y1="-33.351944"
       x2="-150.70689"
       y2="69.330849" />
    <linearGradient
       inkscape:collect="always"
       xlink:href="#linearGradient5488"
       id="linearGradient5748"
       gradientUnits="userSpaceOnUse"
       x1="-150.66277"
       y1="-35.774368"
       x2="-150.66277"
       y2="145.90721" />
    <linearGradient
       inkscape:collect="always"
       xlink:href="#linearGradient5488"
       id="linearGradient5760"
       gradientUnits="userSpaceOnUse"
       x1="-150.66277"
       y1="-35.774368"
       x2="-150.66277"
       y2="145.90721" />
    <linearGradient
       inkscape:collect="always"
       xlink:href="#linearGradient5488"
       id="linearGradient5784"
       gradientUnits="userSpaceOnUse"
       x1="-150.66277"
       y1="-35.774368"
       x2="-150.66277"
       y2="145.90721" />
    <linearGradient
       inkscape:collect="always"
       xlink:href="#linearGradient5507"
       id="linearGradient5846"
       gradientUnits="userSpaceOnUse"
       gradientTransform="matrix(0.91463415,0,0,0.91463415,296.02798,402.17184)"
       x1="-138.55066"
       y1="-33.351944"
       x2="-150.70689"
       y2="69.330849" />
    <linearGradient
       inkscape:collect="always"
       xlink:href="#linearGradient5507"
       id="linearGradient5870"
       gradientUnits="userSpaceOnUse"
       gradientTransform="matrix(0.91463415,0,0,0.91463415,524.5909,397.66745)"
       x1="-138.55066"
       y1="-33.351944"
       x2="-150.70689"
       y2="69.330849" />
    <linearGradient
       inkscape:collect="always"
       xlink:href="#linearGradient5507"
       id="linearGradient5902"
       gradientUnits="userSpaceOnUse"
       gradientTransform="matrix(0.91463415,0,0,0.91463415,291.59671,619.30347)"
       x1="-138.55066"
       y1="-33.351944"
       x2="-150.70689"
       y2="69.330849" />
    <linearGradient
       inkscape:collect="always"
       xlink:href="#linearGradient5488"
       id="linearGradient5935"
       gradientUnits="userSpaceOnUse"
       x1="-150.66277"
       y1="-35.774368"
       x2="-150.66277"
       y2="145.90721" />
    <linearGradient
       inkscape:collect="always"
       xlink:href="#linearGradient5507"
       id="linearGradient5937"
       gradientUnits="userSpaceOnUse"
       gradientTransform="matrix(0.91463415,0,0,0.91463415,506.51273,601.57844)"
       x1="-138.55066"
       y1="-33.351944"
       x2="-150.70689"
       y2="69.330849" />
    <linearGradient
       inkscape:collect="always"
       xlink:href="#linearGradient5488"
       id="linearGradient5950"
       gradientUnits="userSpaceOnUse"
       x1="-150.66277"
       y1="-35.774368"
       x2="-150.66277"
       y2="145.90721" />
    <linearGradient
       inkscape:collect="always"
       xlink:href="#linearGradient5507"
       id="linearGradient5952"
       gradientUnits="userSpaceOnUse"
       gradientTransform="matrix(0.91463415,0,0,0.91463415,951.85415,612.65659)"
       x1="-138.55066"
       y1="-33.351944"
       x2="-150.70689"
       y2="69.330849" />
    <linearGradient
       inkscape:collect="always"
       xlink:href="#linearGradient5507"
       id="linearGradient5960"
       gradientUnits="userSpaceOnUse"
       gradientTransform="matrix(0.91463415,0,0,0.91463415,298.2436,858.5914)"
       x1="-138.55066"
       y1="-33.351944"
       x2="-150.70689"
       y2="69.330849" />
    <linearGradient
       inkscape:collect="always"
       xlink:href="#linearGradient5507"
       id="linearGradient5973"
       gradientUnits="userSpaceOnUse"
       gradientTransform="matrix(0.91463415,0,0,0.91463415,535.31591,843.082)"
       x1="-138.55066"
       y1="-33.351944"
       x2="-150.70689"
       y2="69.330849" />
    <linearGradient
       inkscape:collect="always"
       xlink:href="#linearGradient5488"
       id="linearGradient5998"
       gradientUnits="userSpaceOnUse"
       x1="-150.66277"
       y1="-35.774368"
       x2="-150.66277"
       y2="145.90721" />
    <linearGradient
       inkscape:collect="always"
       xlink:href="#linearGradient5507"
       id="linearGradient6000"
       gradientUnits="userSpaceOnUse"
       gradientTransform="matrix(0.91463415,0,0,0.91463415,752.44754,845.29763)"
       x1="-138.55066"
       y1="-33.351944"
       x2="-150.70689"
       y2="69.330849" />
    <linearGradient
       inkscape:collect="always"
       xlink:href="#linearGradient5488"
       id="linearGradient6034"
       gradientUnits="userSpaceOnUse"
       x1="-150.66277"
       y1="-35.774368"
       x2="-150.66277"
       y2="145.90721" />
    <linearGradient
       inkscape:collect="always"
       xlink:href="#linearGradient5507"
       id="linearGradient6036"
       gradientUnits="userSpaceOnUse"
       gradientTransform="matrix(0.91463415,0,0,0.91463415,978.44168,851.94452)"
       x1="-138.55066"
       y1="-33.351944"
       x2="-150.70689"
       y2="69.330849" />
    <linearGradient
       inkscape:collect="always"
       xlink:href="#linearGradient5488"
       id="linearGradient6078"
       gradientUnits="userSpaceOnUse"
       x1="-150.66277"
       y1="-35.774368"
       x2="-150.66277"
       y2="145.90721" />
    <linearGradient
       inkscape:collect="always"
       xlink:href="#linearGradient5507"
       id="linearGradient6080"
       gradientUnits="userSpaceOnUse"
       gradientTransform="matrix(0.91463415,0,0,0.91463415,1044.2616,480.14839)"
       x1="-138.55066"
       y1="-33.351944"
       x2="-150.70689"
       y2="69.330849" />
    <linearGradient
       inkscape:collect="always"
       xlink:href="#linearGradient5488"
       id="linearGradient6092"
       gradientUnits="userSpaceOnUse"
       x1="-150.66277"
       y1="-35.774368"
       x2="-150.66277"
       y2="145.90721" />
    <linearGradient
       inkscape:collect="always"
       xlink:href="#linearGradient5507"
       id="linearGradient6094"
       gradientUnits="userSpaceOnUse"
       gradientTransform="matrix(0.91463415,0,0,0.91463415,739.15377,579.42215)"
       x1="-138.55066"
       y1="-33.351944"
       x2="-150.70689"
       y2="69.330849" />
  </defs>
  <sodipodi:namedview
     id="base"
     pagecolor="#ffffff"
     bordercolor="#666666"
     borderopacity="1.0"
     inkscape:pageopacity="0.0"
     inkscape:pageshadow="2"
     inkscape:zoom="0.90267821"
     inkscape:cx="214.96787"
     inkscape:cy="56.928204"
     inkscape:document-units="px"
     inkscape:current-layer="layer1"
     showgrid="false"
     inkscape:window-width="1920"
     inkscape:window-height="1089"
     inkscape:window-x="0"
     inkscape:window-y="0"
     inkscape:window-maximized="0"
     showguides="true"
     inkscape:guide-bbox="true" />
  <metadata
     id="metadata7">
    <rdf:RDF>
      <cc:Work
         rdf:about="">
        <dc:format>image/svg+xml</dc:format>
        <dc:type
           rdf:resource="http://purl.org/dc/dcmitype/StillImage" />
        <dc:title></dc:title>
      </cc:Work>
    </rdf:RDF>
  </metadata>
  <g
     inkscape:label="Layer 1"
     inkscape:groupmode="layer"
     id="layer1"
     transform="translate(-369.81922,-589.22817)">
    <g
       transform="matrix(1.220415,0,0,1.6642894,-241.30716,-143.97671)"
       style="font-size:40px;font-style:normal;font-variant:normal;font-weight:bold;font-stretch:normal;fill:#013397;fill-opacity:1;stroke:none;font-family:Arial Rounded MT Bold;-inkscape-font-specification:'Arial Rounded MT Bold, Bold'"
       id="text5236" />
    <g
       id="g5711"
       transform="matrix(0.26118924,0,0,0.26118924,543.45519,503.32518)">
      <path
         transform="matrix(0.96341463,0,0,0.97560976,63.440503,363.7936)"
         d="m -59.821976,55.066422 c 0,50.169978 -40.670804,90.840788 -90.840794,90.840788 -50.16998,0 -90.84079,-40.67081 -90.84079,-90.840788 0,-50.1699834 40.67081,-90.84079 90.84079,-90.84079 50.16999,0 90.840794,40.6708066 90.840794,90.84079 z"
         sodipodi:ry="90.84079"
         sodipodi:rx="90.84079"
         sodipodi:cy="55.066422"
         sodipodi:cx="-150.66277"
         id="path5484"
         style="fill:#f44800;fill-opacity:1;stroke:none"
         sodipodi:type="arc" />
      <path
         sodipodi:type="arc"
         style="fill:url(#linearGradient5494);fill-opacity:1;stroke:none"
         id="path5486"
         sodipodi:cx="-150.66277"
         sodipodi:cy="55.066422"
         sodipodi:rx="90.84079"
         sodipodi:ry="90.84079"
         d="m -59.821976,55.066422 c 0,50.169978 -40.670804,90.840788 -90.840794,90.840788 -50.16998,0 -90.84079,-40.67081 -90.84079,-90.840788 0,-50.1699834 40.67081,-90.84079 90.84079,-90.84079 50.16999,0 90.840794,40.6708066 90.840794,90.84079 z"
         transform="matrix(0.91463415,0,0,0.91463415,56.0911,367.15131)" />
      <g
         style="fill:#ffffff;fill-opacity:1"
         transform="matrix(0.64616819,0,0,0.64616819,-616.38834,70.843306)"
         id="g4126">
        <path
           style="fill:#ffffff;fill-opacity:1;stroke-width:1.89999998;stroke-miterlimit:4"
           d="m 820.66998,454.65031 a 16.354541,12.35406 0 0 0 -6.3125,1.21875 16.354541,12.35406 0 0 0 -7.03125,4.90625 l -68.40625,88.78125 a 16.354541,12.35406 0 0 0 7.75,17.59375 l 61.4375,-79.71875 a 16.354541,12.35406 0 0 1 7.03125,-4.9375 16.354541,12.35406 0 0 1 21.3125,5 l 60.25,79.53125 a 16.354541,12.35406 0 0 0 6.5,-17.03125 l -67.53125,-89.125 a 16.354541,12.35406 0 0 0 -15,-6.21875 z"
           id="path4109" />
        <path
           style="fill:#ffffff;fill-opacity:1;stroke-width:1.89999998;stroke-miterlimit:4;stroke-dasharray:none"
           d="m 820.34375,187.125 a 10.050692,7.84926 0 0 0 -3.875,0.75 A 10.050692,7.84926 0 0 0 812.125,191 l -42.03125,56.40625 a 10.050692,7.84926 0 0 0 -0.40625,0.5625 c -0.01,0.0143 0.01,0.0481 0,0.0625 a 10.050692,7.84926 0 0 0 -0.0937,0.0937 c -1.22731,1.8742 -1.90625,4.11355 -1.90625,6.53125 l 0,49.03125 c 0,6.59775 5.28309,11.90625 11.875,11.90625 l 24.5625,0 0,-42.90625 c 0,-6.59775 5.28309,-11.90625 11.875,-11.90625 l 9.125,0 c 6.59191,0 11.875,5.3085 11.875,11.90625 l 0,42.90625 24.53125,0 c 6.59191,0 11.90625,-5.3085 11.90625,-11.90625 l 0,-49.03125 c 0,-3.11645 -1.21203,-5.91297 -3.15625,-8.03125 l -40.75,-55.5625 a 10.050692,7.84926 0 0 0 -9.1875,-3.9375 z"
           transform="translate(0,308.2677)"
           id="rect4116" />
        <rect
           style="fill:#ffffff;fill-opacity:1;stroke-width:1.89999998;stroke-miterlimit:4;stroke-dasharray:none"
           id="rect4124"
           width="22.716951"
           height="39.167156"
           x="770.02631"
           y="469.5549"
           rx="70.501877"
           ry="70.564301" />
      </g>
      <path
         id="path5496"
         d="m -81.703695,334.41927 c -45.159805,0 -81.908935,36.05581 -83.062495,80.9375 37.38657,15.04048 95.242505,25.78438 166.031245,-2.09375 -2.20992,-43.91462 -38.50517,-78.84375 -82.96875,-78.84375 z"
         style="opacity:0.75720167;fill:url(#linearGradient5707);fill-opacity:1;stroke:none" />
    </g>
    <g
       id="g5850"
       transform="matrix(0.26118924,0,0,0.26118924,351.35071,494.17819)">
      <path
         transform="matrix(0.96341463,0,0,0.97560976,303.37737,398.81413)"
         d="m -59.821976,55.066422 c 0,50.169978 -40.670804,90.840788 -90.840794,90.840788 -50.16998,0 -90.84079,-40.67081 -90.84079,-90.840788 0,-50.1699834 40.67081,-90.84079 90.84079,-90.84079 50.16999,0 90.840794,40.6708066 90.840794,90.84079 z"
         sodipodi:ry="90.84079"
         sodipodi:rx="90.84079"
         sodipodi:cy="55.066422"
         sodipodi:cx="-150.66277"
         id="path5676"
         style="fill:#f44800;fill-opacity:1;stroke:none"
         sodipodi:type="arc" />
      <path
         sodipodi:type="arc"
         style="fill:url(#linearGradient5682);fill-opacity:1;stroke:none"
         id="path5678"
         sodipodi:cx="-150.66277"
         sodipodi:cy="55.066422"
         sodipodi:rx="90.84079"
         sodipodi:ry="90.84079"
         d="m -59.821976,55.066422 c 0,50.169978 -40.670804,90.840788 -90.840794,90.840788 -50.16998,0 -90.84079,-40.67081 -90.84079,-90.840788 0,-50.1699834 40.67081,-90.84079 90.84079,-90.84079 50.16999,0 90.840794,40.6708066 90.840794,90.84079 z"
         transform="matrix(0.91463415,0,0,0.91463415,296.02797,402.17184)" />
      <g
         style="fill:#ffffff;fill-opacity:1"
         transform="matrix(0.7131997,0,0,0.7131997,-596.80339,-83.010181)"
         id="g5152">
        <path
           id="path5092"
           d="m 1022.0698,673.30836 c -5.4945,0 -9.9163,4.14395 -9.9163,9.293 l 0,35.42921 c 0,5.14896 4.4218,9.29305 9.9163,9.29305 l 63.2342,0 c 5.4945,0 9.9163,-4.14409 9.9163,-9.29305 l 0,-35.42921 c 0,-5.14905 -4.4218,-9.293 -9.9163,-9.293 l -63.2342,0 z m 9.1132,8.14427 45.0079,0 c 5.4944,0 9.9163,4.14392 9.9163,9.29301 l 0,19.14052 c 0,5.14909 -4.4219,9.29313 -9.9163,9.29313 l -45.0079,0 c -5.4945,0 -9.9163,-4.14404 -9.9163,-9.29313 l 0,-19.14052 c 0,-5.14909 4.4218,-9.29301 9.9163,-9.29301 z"
           style="fill:#ffffff;fill-opacity:1;stroke-width:1.89999998;stroke-miterlimit:4;stroke-dasharray:none" />
        <rect
           style="fill:#ffffff;fill-opacity:1;stroke-width:1.89999998;stroke-miterlimit:4;stroke-dasharray:none"
           id="rect5098"
           width="48.743835"
           height="37.665691"
           x="970.4455"
           y="470.46429"
           transform="translate(0,308.2677)"
           rx="53.682602"
           ry="53.682602" />
        <rect
           ry="53.682602"
           rx="53.682602"
           y="779.83978"
           x="1091.1973"
           height="37.665691"
           width="48.743835"
           id="rect5114"
           style="fill:#ffffff;fill-opacity:1;stroke-width:1.89999998;stroke-miterlimit:4;stroke-dasharray:none" />
        <rect
           style="fill:#ffffff;fill-opacity:1;stroke-width:1.89999998;stroke-miterlimit:4;stroke-dasharray:none"
           id="rect5116"
           width="48.743835"
           height="37.665691"
           x="1030.2675"
           y="779.83978"
           rx="53.682602"
           ry="53.682602" />
        <g
           style="fill:#ffffff;fill-opacity:1"
           id="g5138">
          <rect
             y="736.35809"
             x="1049.6542"
             height="37.388741"
             width="9.1394691"
             id="rect5126"
             style="fill:#ffffff;fill-opacity:1;stroke-width:1.89999998;stroke-miterlimit:4;stroke-dasharray:none" />
          <rect
             y="748.54407"
             x="1110.7635"
             height="25.20278"
             width="9.4164228"
             id="rect5128"
             style="fill:#ffffff;fill-opacity:1;stroke-width:1.89999998;stroke-miterlimit:4;stroke-dasharray:none" />
          <rect
             style="fill:#ffffff;fill-opacity:1;stroke-width:1.89999998;stroke-miterlimit:4;stroke-dasharray:none"
             id="rect5134"
             width="9.4164228"
             height="25.20278"
             x="981.91986"
             y="748.54407" />
          <rect
             y="748.54407"
             x="981.91986"
             height="10.770968"
             width="138.26007"
             id="rect5136"
             style="fill:#ffffff;fill-opacity:1;stroke-width:1.89999998;stroke-miterlimit:4;stroke-dasharray:none" />
        </g>
        <rect
           style="fill:#ffffff;fill-opacity:1;stroke-width:1.89999998;stroke-miterlimit:4;stroke-dasharray:none"
           id="rect5144"
           width="49.546452"
           height="5.2875662"
           x="1029.7046"
           y="379.6441"
           transform="translate(0,308.2677)" />
        <rect
           transform="translate(0,308.2677)"
           y="379.6441"
           x="1029.7046"
           height="5.2875662"
           width="49.546452"
           id="rect5146"
           style="fill:#ffffff;fill-opacity:1;stroke-width:1.89999998;stroke-miterlimit:4;stroke-dasharray:none" />
        <rect
           style="fill:#ffffff;fill-opacity:1;stroke-width:1.89999998;stroke-miterlimit:4;stroke-dasharray:none"
           id="rect5148"
           width="49.546452"
           height="5.2875662"
           x="1029.7046"
           y="697.9118" />
        <rect
           y="707.9118"
           x="1029.7046"
           height="5.2875662"
           width="49.546452"
           id="rect5150"
           style="fill:#ffffff;fill-opacity:1;stroke-width:1.89999998;stroke-miterlimit:4;stroke-dasharray:none" />
      </g>
      <path
         id="path5680"
         d="m 158.23318,369.4398 c -45.15981,0 -81.90894,36.05581 -83.0625,80.9375 37.38657,15.04048 95.24251,25.78438 166.03125,-2.09375 -2.20992,-43.91462 -38.50517,-78.84375 -82.96875,-78.84375 z"
         style="opacity:0.75720167;fill:url(#linearGradient5846);fill-opacity:1;stroke:none" />
    </g>
    <g
       id="g5874"
       transform="matrix(0.26118924,0,0,0.26118924,356.37031,495.35469)">
      <path
         sodipodi:type="arc"
         style="fill:#f44800;fill-opacity:1;stroke:none"
         id="path5668"
         sodipodi:cx="-150.66277"
         sodipodi:cy="55.066422"
         sodipodi:rx="90.84079"
         sodipodi:ry="90.84079"
         d="m -59.821976,55.066422 c 0,50.169978 -40.670804,90.840788 -90.840794,90.840788 -50.16998,0 -90.84079,-40.67081 -90.84079,-90.840788 0,-50.1699834 40.67081,-90.84079 90.84079,-90.84079 50.16999,0 90.840794,40.6708066 90.840794,90.84079 z"
         transform="matrix(0.96341463,0,0,0.97560976,531.94029,394.30974)" />
      <path
         transform="matrix(0.91463415,0,0,0.91463415,524.59089,397.66745)"
         d="m -59.821976,55.066422 c 0,50.169978 -40.670804,90.840788 -90.840794,90.840788 -50.16998,0 -90.84079,-40.67081 -90.84079,-90.840788 0,-50.1699834 40.67081,-90.84079 90.84079,-90.84079 50.16999,0 90.840794,40.6708066 90.840794,90.84079 z"
         sodipodi:ry="90.84079"
         sodipodi:rx="90.84079"
         sodipodi:cy="55.066422"
         sodipodi:cx="-150.66277"
         id="path5670"
         style="fill:url(#linearGradient5686);fill-opacity:1;stroke:none"
         sodipodi:type="arc" />
      <g
         id="text5197"
         style="font-size:139.71510315px;font-style:normal;font-variant:normal;font-weight:bold;font-stretch:normal;fill:#ffffff;fill-opacity:1;stroke:none;font-family:Arial Rounded MT Bold;-inkscape-font-specification:'Arial Rounded MT Bold, Bold'"
         transform="matrix(0.79421259,0,0,0.72444468,-411.84927,95.39131)">
        <path
           style="fill:#ffffff;fill-opacity:1"
           id="path5202"
           d="m 1018.552,460.46903 1.7055,-7.57245 18.0102,0 -10.3695,48.91394 c -0.6368,3.09267 -0.9552,5.13927 -0.9551,6.13982 -10e-5,1.04606 0.25,1.8647 0.7504,2.45593 0.5457,0.59125 1.1824,0.88688 1.9102,0.88686 2.4558,2e-5 5.6167,-1.59179 9.4826,-4.77542 3.9112,-3.22907 7.2995,-7.59516 10.1648,-13.09829 2.9106,-5.54854 4.366,-11.5974 4.3661,-18.14659 -10e-5,-5.45756 -1.0461,-10.59682 -3.1381,-15.41778 -2.0467,-4.82083 -5.0257,-9.005 -8.9369,-12.55253 -3.9114,-3.54737 -8.755,-6.32166 -14.5309,-8.32287 -5.7306,-2.00104 -12.2342,-3.0016 -19.511,-3.00169 -7.4133,9e-5 -14.2126,0.97791 -20.39784,2.93347 -6.18535,1.91025 -11.62023,4.68454 -16.30464,8.32287 -4.6845,3.59301 -8.59579,8.05006 -11.73389,13.37117 -2.77431,4.63904 -4.88914,9.7783 -6.34448,15.41778 -1.45539,5.63959 -2.18307,11.39283 -2.18305,17.25973 -2e-5,7.82262 1.5463,14.98574 4.63897,21.48939 3.13811,6.45818 7.66339,11.87032 13.57584,16.23642 5.95786,4.41157 13.14372,7.52695 21.5576,9.34617 8.41377,1.86468 17.91909,2.25126 28.51609,1.15975 8.4137,-1.00058 15.5314,-2.91075 21.3529,-5.7305 5.8669,-2.81978 10.8242,-6.77655 14.872,-11.87033 l 14.531,0 c -2.3651,4.86638 -5.4578,9.20973 -9.278,13.03007 -3.775,3.82032 -8.2093,7.02667 -13.3029,9.61906 -5.0939,2.63783 -10.8017,4.63895 -17.1233,6.00338 -6.3219,1.36438 -13.2121,2.04658 -20.6708,2.04661 -11.18816,-3e-5 -21.26201,-1.47813 -30.22155,-4.43432 -8.95963,-2.91075 -16.50934,-7.1404 -22.64913,-12.68897 -6.09436,-5.5031 -10.71059,-12.07498 -13.84871,-19.71565 -3.13814,-7.68614 -4.70721,-16.16818 -4.7072,-25.44616 -1e-5,-9.68724 1.61454,-18.73778 4.84364,-27.15167 3.22908,-8.41376 7.86805,-15.71332 13.91693,-21.8987 6.09431,-6.2307 13.50758,-11.09707 22.23981,-14.59914 8.77762,-3.50187 18.44214,-5.25286 28.99361,-5.25296 8.6412,10e-5 16.5547,1.27355 23.7407,3.82034 7.2312,2.5015 13.4165,6.11717 18.5559,10.84702 5.1391,4.73002 9.0504,10.34681 11.7338,16.8504 2.7287,6.45825 4.0931,13.59863 4.0933,21.42117 -2e-4,6.09438 -1.0917,12.07502 -3.2746,17.94193 -2.1832,5.82148 -5.3213,11.07444 -9.4144,15.75888 -4.0479,4.63899 -8.8233,8.32288 -14.3263,11.05168 -5.5032,2.68333 -11.4383,4.025 -17.8054,4.025 -3.684,0 -6.5493,-0.61399 -8.5958,-1.84195 -2.0467,-1.27344 -3.4111,-3.27457 -4.0932,-6.00338 -3.9569,3.91129 -8.50488,6.38996 -13.64407,7.436 -5.13932,1.00057 -10.11939,0.52303 -14.94024,-1.43262 -4.82094,-2.00113 -8.73223,-5.34392 -11.73389,-10.02838 -2.95624,-4.68444 -4.43434,-10.46042 -4.43431,-17.32795 -3e-5,-7.14035 1.52355,-14.16703 4.57076,-21.08006 3.09261,-6.91293 7.4587,-12.57521 13.09829,-16.98685 5.68497,-4.4115 12.09766,-6.61729 19.23816,-6.61736 8.1863,7e-5 14.1897,3.06998 18.0101,9.20973 m -37.31648,35.3381 c -5e-5,5.45765 1.13695,9.64182 3.41101,12.55253 2.27395,2.91075 5.2529,4.36611 8.93685,4.3661 4.27508,10e-6 8.02722,-1.7055 11.25632,-5.11652 3.2745,-3.41099 5.7532,-7.70887 7.436,-12.89363 1.6827,-5.23019 2.5241,-10.27848 2.5242,-15.1449 -10e-5,-2.4104 -0.2957,-4.57071 -0.8869,-6.48093 -0.5458,-1.95559 -1.3872,-3.6611 -2.5241,-5.11652 -1.0916,-1.4553 -2.4333,-2.54683 -4.025,-3.27457 -1.5464,-0.7731 -3.3201,-1.15968 -5.3212,-1.15974 -4.00232,6e-5 -7.61799,1.56912 -10.84703,4.70719 -3.18366,3.09271 -5.63959,7.14044 -7.36778,12.14321 -1.7283,4.95738 -2.59242,10.09664 -2.59237,15.41778" />
      </g>
      <path
         style="opacity:0.75720167;fill:url(#linearGradient5870);fill-opacity:1;stroke:none"
         d="m 386.7961,364.93541 c -45.15981,0 -81.90894,36.05581 -83.0625,80.9375 37.38657,15.04048 95.24251,25.78438 166.03125,-2.09375 -2.20992,-43.91462 -38.50517,-78.84375 -82.96875,-78.84375 z"
         id="path5672" />
    </g>
    <g
       id="g6058"
       transform="matrix(0.26118924,0,0,0.26118924,350.07347,473.81156)">
      <path
         sodipodi:type="arc"
         style="fill:#f44800;fill-opacity:1;stroke:none"
         id="path5722"
         sodipodi:cx="-150.66277"
         sodipodi:cy="55.066422"
         sodipodi:rx="90.84079"
         sodipodi:ry="90.84079"
         d="m -59.821976,55.066422 c 0,50.169978 -40.670804,90.840788 -90.840794,90.840788 -50.16998,0 -90.84079,-40.67081 -90.84079,-90.840788 0,-50.1699834 40.67081,-90.84079 90.84079,-90.84079 50.16999,0 90.840794,40.6708066 90.840794,90.84079 z"
         transform="matrix(0.96341463,0,0,0.97560976,1051.611,476.79068)" />
      <path
         transform="matrix(0.91463415,0,0,0.91463415,1044.2616,480.14839)"
         d="m -59.821976,55.066422 c 0,50.169978 -40.670804,90.840788 -90.840794,90.840788 -50.16998,0 -90.84079,-40.67081 -90.84079,-90.840788 0,-50.1699834 40.67081,-90.84079 90.84079,-90.84079 50.16999,0 90.840794,40.6708066 90.840794,90.84079 z"
         sodipodi:ry="90.84079"
         sodipodi:rx="90.84079"
         sodipodi:cy="55.066422"
         sodipodi:cx="-150.66277"
         id="path5724"
         style="fill:url(#linearGradient6078);fill-opacity:1;stroke:none"
         sodipodi:type="arc" />
      <g
         style="fill:#ffffff;fill-opacity:1"
         transform="translate(-137.92338,288.37138)"
         id="g5690">
        <path
           sodipodi:type="arc"
           style="fill:#ffffff;fill-opacity:1;stroke-width:1.89999998;stroke-miterlimit:4;stroke-dasharray:none"
           id="path3984"
           sodipodi:cx="13.01682"
           sodipodi:cy="296.26047"
           sodipodi:rx="16.340263"
           sodipodi:ry="16.340263"
           d="m 29.357083,296.26047 c 0,9.02448 -7.315785,16.34026 -16.340263,16.34026 -9.0244783,0 -16.3402634,-7.31578 -16.3402634,-16.34026 0,-9.02448 7.3157851,-16.34027 16.3402634,-16.34027 9.024478,0 16.340263,7.31579 16.340263,16.34027 z"
           transform="matrix(0.66140331,0,0,0.62588358,1049.5648,94.656658)" />
        <path
           transform="matrix(0.66140331,0,0,0.62588358,1007.4338,94.309973)"
           d="m 29.357083,296.26047 c 0,9.02448 -7.315785,16.34026 -16.340263,16.34026 -9.0244783,0 -16.3402634,-7.31578 -16.3402634,-16.34026 0,-9.02448 7.3157851,-16.34027 16.3402634,-16.34027 9.024478,0 16.340263,7.31579 16.340263,16.34027 z"
           sodipodi:ry="16.340263"
           sodipodi:rx="16.340263"
           sodipodi:cy="296.26047"
           sodipodi:cx="13.01682"
           id="path3986"
           style="fill:#ffffff;fill-opacity:1;stroke-width:1.89999998;stroke-miterlimit:4;stroke-dasharray:none"
           sodipodi:type="arc" />
        <path
           style="fill:#ffffff;fill-opacity:1;stroke-width:1.89999998;stroke-miterlimit:4;stroke-dasharray:none"
           d="m 1089.7465,214.97288 c -3.0278,-0.0128 -6.3415,1.85351 -8.0815,4.77236 l -18.1059,30.35536 -54.7725,0 c -4.397,0 -7.9369,3.2426 -7.9369,7.27589 0,4.03329 3.5399,7.2759 7.9369,7.2759 l 55.5579,0 c 1.821,0 3.4794,-0.56697 4.8158,-1.50603 1.4449,-0.82838 2.735,-2.02143 3.6171,-3.50104 l 18.7053,-31.39198 15.791,0 c 4.3599,0 7.8748,-2.94216 7.8748,-6.59133 0,-3.64917 -3.5149,-6.59133 -7.8748,-6.59133 l -16.4938,0 c -0.3425,-0.0536 -0.6806,-0.0963 -1.0334,-0.0978 z"
           id="rect3988" />
        <g
           style="fill:#ffffff;fill-opacity:1"
           id="g4031"
           transform="matrix(0.66140331,0,0,0.62588358,989.84875,-208.52774)">
          <path
             transform="matrix(0.84615385,0,0,0.84615385,6.8173196,320.73962)"
             d="m 29.910992,462.70959 c 0,7.95378 -6.447811,14.40159 -14.401589,14.40159 -7.9537774,0 -14.4015882,-6.44781 -14.4015882,-14.40159 0,-7.95377 6.4478108,-14.40158 14.4015882,-14.40158 7.953778,0 14.401589,6.44781 14.401589,14.40158 z"
             sodipodi:ry="14.401588"
             sodipodi:rx="14.401588"
             sodipodi:cy="462.70959"
             sodipodi:cx="15.509403"
             id="path4003"
             style="fill:#ffffff;fill-opacity:1;stroke-width:1.89999998;stroke-miterlimit:4;stroke-dasharray:none"
             sodipodi:type="arc" />
          <path
             sodipodi:type="arc"
             style="fill:#ffffff;fill-opacity:1;stroke-width:1.89999998;stroke-miterlimit:4;stroke-dasharray:none"
             id="path4011"
             sodipodi:cx="15.509403"
             sodipodi:cy="462.70959"
             sodipodi:rx="14.401588"
             sodipodi:ry="14.401588"
             d="m 29.910992,462.70959 c 0,7.95378 -6.447811,14.40159 -14.401589,14.40159 -7.9537774,0 -14.4015882,-6.44781 -14.4015882,-14.40159 0,-7.95377 6.4478108,-14.40158 14.4015882,-14.40158 7.953778,0 14.401589,6.44781 14.401589,14.40158 z"
             transform="matrix(0.84615385,0,0,0.84615385,34.470069,320.73962)" />
          <path
             transform="matrix(0.84615385,0,0,0.84615385,62.122823,320.73962)"
             d="m 29.910992,462.70959 c 0,7.95378 -6.447811,14.40159 -14.401589,14.40159 -7.9537774,0 -14.4015882,-6.44781 -14.4015882,-14.40159 0,-7.95377 6.4478108,-14.40158 14.4015882,-14.40158 7.953778,0 14.401589,6.44781 14.401589,14.40158 z"
             sodipodi:ry="14.401588"
             sodipodi:rx="14.401588"
             sodipodi:cy="462.70959"
             sodipodi:cx="15.509403"
             id="path4013"
             style="fill:#ffffff;fill-opacity:1;stroke-width:1.89999998;stroke-miterlimit:4;stroke-dasharray:none"
             sodipodi:type="arc" />
          <path
             sodipodi:type="arc"
             style="fill:#ffffff;fill-opacity:1;stroke-width:1.89999998;stroke-miterlimit:4;stroke-dasharray:none"
             id="path4029"
             sodipodi:cx="15.509403"
             sodipodi:cy="462.70959"
             sodipodi:rx="14.401588"
             sodipodi:ry="14.401588"
             d="m 29.910992,462.70959 c 0,7.95378 -6.447811,14.40159 -14.401589,14.40159 -7.9537774,0 -14.4015882,-6.44781 -14.4015882,-14.40159 0,-7.95377 6.4478108,-14.40158 14.4015882,-14.40158 7.953778,0 14.401589,6.44781 14.401589,14.40158 z"
             transform="matrix(0.84615385,0,0,0.84615385,89.77558,320.73962)" />
        </g>
        <g
           style="fill:#ffffff;fill-opacity:1"
           transform="matrix(0.66140331,0,0,0.62588358,977.6643,-227.8548)"
           id="g4037">
          <path
             sodipodi:type="arc"
             style="fill:#ffffff;fill-opacity:1;stroke-width:1.89999998;stroke-miterlimit:4;stroke-dasharray:none"
             id="path4039"
             sodipodi:cx="15.509403"
             sodipodi:cy="462.70959"
             sodipodi:rx="14.401588"
             sodipodi:ry="14.401588"
             d="m 29.910992,462.70959 c 0,7.95378 -6.447811,14.40159 -14.401589,14.40159 -7.9537774,0 -14.4015882,-6.44781 -14.4015882,-14.40159 0,-7.95377 6.4478108,-14.40158 14.4015882,-14.40158 7.953778,0 14.401589,6.44781 14.401589,14.40158 z"
             transform="matrix(0.84615385,0,0,0.84615385,6.8173196,320.73962)" />
          <path
             transform="matrix(0.84615385,0,0,0.84615385,34.470069,320.73962)"
             d="m 29.910992,462.70959 c 0,7.95378 -6.447811,14.40159 -14.401589,14.40159 -7.9537774,0 -14.4015882,-6.44781 -14.4015882,-14.40159 0,-7.95377 6.4478108,-14.40158 14.4015882,-14.40158 7.953778,0 14.401589,6.44781 14.401589,14.40158 z"
             sodipodi:ry="14.401588"
             sodipodi:rx="14.401588"
             sodipodi:cy="462.70959"
             sodipodi:cx="15.509403"
             id="path4041"
             style="fill:#ffffff;fill-opacity:1;stroke-width:1.89999998;stroke-miterlimit:4;stroke-dasharray:none"
             sodipodi:type="arc" />
          <path
             sodipodi:type="arc"
             style="fill:#ffffff;fill-opacity:1;stroke-width:1.89999998;stroke-miterlimit:4;stroke-dasharray:none"
             id="path4043"
             sodipodi:cx="15.509403"
             sodipodi:cy="462.70959"
             sodipodi:rx="14.401588"
             sodipodi:ry="14.401588"
             d="m 29.910992,462.70959 c 0,7.95378 -6.447811,14.40159 -14.401589,14.40159 -7.9537774,0 -14.4015882,-6.44781 -14.4015882,-14.40159 0,-7.95377 6.4478108,-14.40158 14.4015882,-14.40158 7.953778,0 14.401589,6.44781 14.401589,14.40158 z"
             transform="matrix(0.84615385,0,0,0.84615385,62.122823,320.73962)" />
          <path
             transform="matrix(0.84615385,0,0,0.84615385,89.77558,320.73962)"
             d="m 29.910992,462.70959 c 0,7.95378 -6.447811,14.40159 -14.401589,14.40159 -7.9537774,0 -14.4015882,-6.44781 -14.4015882,-14.40159 0,-7.95377 6.4478108,-14.40158 14.4015882,-14.40158 7.953778,0 14.401589,6.44781 14.401589,14.40158 z"
             sodipodi:ry="14.401588"
             sodipodi:rx="14.401588"
             sodipodi:cy="462.70959"
             sodipodi:cx="15.509403"
             id="path4045"
             style="fill:#ffffff;fill-opacity:1;stroke-width:1.89999998;stroke-miterlimit:4;stroke-dasharray:none"
             sodipodi:type="arc" />
          <path
             sodipodi:type="arc"
             style="fill:#ffffff;fill-opacity:1;stroke-width:1.89999998;stroke-miterlimit:4;stroke-dasharray:none"
             id="path5659"
             sodipodi:cx="15.509403"
             sodipodi:cy="462.70959"
             sodipodi:rx="14.401588"
             sodipodi:ry="14.401588"
             d="m 29.910992,462.70959 c 0,7.95378 -6.447811,14.40159 -14.401589,14.40159 -7.9537774,0 -14.4015882,-6.44781 -14.4015882,-14.40159 0,-7.95377 6.4478108,-14.40158 14.4015882,-14.40158 7.953778,0 14.401589,6.44781 14.401589,14.40158 z"
             transform="matrix(0.84615385,0,0,0.84615385,116.99043,320.73962)" />
        </g>
      </g>
      <path
         style="opacity:0.75720167;fill:url(#linearGradient6080);fill-opacity:1;stroke:none"
         d="m 906.46681,447.41634 c -45.1598,0 -81.90893,36.05581 -83.06249,80.9375 37.38657,15.04048 95.24251,25.78438 166.03124,-2.09375 -2.20991,-43.91462 -38.50517,-78.84375 -82.96875,-78.84375 z"
         id="path5734" />
    </g>
    <g
       id="g5906"
       transform="matrix(0.26118924,0,0,0.26118924,352.50811,501.06648)">
      <path
         sodipodi:type="arc"
         style="fill:#f44800;fill-opacity:1;stroke:none"
         id="path5742"
         sodipodi:cx="-150.66277"
         sodipodi:cy="55.066422"
         sodipodi:rx="90.84079"
         sodipodi:ry="90.84079"
         d="m -59.821976,55.066422 c 0,50.169978 -40.670804,90.840788 -90.840794,90.840788 -50.16998,0 -90.84079,-40.67081 -90.84079,-90.840788 0,-50.1699834 40.67081,-90.84079 90.84079,-90.84079 50.16999,0 90.840794,40.6708066 90.840794,90.84079 z"
         transform="matrix(0.96341463,0,0,0.97560976,298.94611,615.94576)" />
      <path
         transform="matrix(0.91463415,0,0,0.91463415,291.59671,619.30347)"
         d="m -59.821976,55.066422 c 0,50.169978 -40.670804,90.840788 -90.840794,90.840788 -50.16998,0 -90.84079,-40.67081 -90.84079,-90.840788 0,-50.1699834 40.67081,-90.84079 90.84079,-90.84079 50.16999,0 90.840794,40.6708066 90.840794,90.84079 z"
         sodipodi:ry="90.84079"
         sodipodi:rx="90.84079"
         sodipodi:cy="55.066422"
         sodipodi:cx="-150.66277"
         id="path5744"
         style="fill:url(#linearGradient5748);fill-opacity:1;stroke:none"
         sodipodi:type="arc" />
      <g
         style="fill:#ffffff;fill-opacity:1"
         transform="matrix(0.75852693,0,0,0.75852693,17.135737,-126.34314)"
         id="g5179">
        <path
           style="fill:#ffffff;fill-opacity:1;stroke-width:1.89999998;stroke-miterlimit:4;stroke-dasharray:none"
           d="m 133.00211,983.49643 c -7.79269,0 -14.06426,6.74806 -14.06426,15.13284 l 0,57.69333 c 0,8.3848 6.27157,15.1328 14.06426,15.1328 l 89.68519,0 c 7.79269,0 14.06427,-6.748 14.06427,-15.1328 l 0,-57.69333 c 0,-8.38478 -6.27158,-15.13284 -14.06427,-15.13284 l -89.68519,0 z m 12.92522,13.26222 63.83475,0 c 7.79269,0 14.06428,6.74805 14.06428,15.13285 l 0,31.1687 c 0,8.3848 -6.27159,15.133 -14.06428,15.133 l -63.83475,0 c -7.79268,0 -14.06427,-6.7482 -14.06427,-15.133 l 0,-31.1687 c 0,-8.3848 6.27159,-15.13285 14.06427,-15.13285 z"
           id="rect5085" />
        <path
           style="fill:#ffffff;fill-opacity:1;stroke-width:1.89999998;stroke-miterlimit:4;stroke-dasharray:none"
           d="m 116.34375,772.21875 c -2.77,0 -5,2.23 -5,5 l 0,26.125 c 0,2.77 2.23,5 5,5 l 122.9375,0 c 2.77,0 5,-2.23 5,-5 l 0,-26.125 c 0,-2.77 -2.23,-5 -5,-5 l -122.9375,0 z m 10.375,9 c 4.20733,0 7.59375,3.08232 7.59375,6.90625 0,3.82393 -3.38642,6.9375 -7.59375,6.9375 -4.20733,0 -7.625,-3.11357 -7.625,-6.9375 0,-3.82393 3.41767,-6.90625 7.625,-6.90625 z m 62.71875,0.53125 40.40625,0 c 2.77,0 5,2.23 5,5 l 0,1.65625 c 0,2.77 -2.23,5 -5,5 l -40.40625,0 c -2.77,0 -5,-2.23 -5,-5 l 0,-1.65625 c 0,-2.77 2.23,-5 5,-5 z"
           transform="translate(0,308.2677)"
           id="rect5167" />
      </g>
      <path
         style="opacity:0.75720167;fill:url(#linearGradient5902);fill-opacity:1;stroke:none"
         d="m 153.80191,586.57143 c -45.15981,0 -81.90894,36.05581 -83.0625,80.9375 37.38657,15.04048 95.24251,25.78438 166.03125,-2.09375 -2.20992,-43.91462 -38.50517,-78.84375 -82.96875,-78.84375 z"
         id="path5746" />
    </g>
    <g
       id="g5927"
       transform="matrix(0.26118924,0,0,0.26118924,361.09213,505.69607)">
      <path
         sodipodi:type="arc"
         style="fill:#f44800;fill-opacity:1;stroke:none"
         id="path5766"
         sodipodi:cx="-150.66277"
         sodipodi:cy="55.066422"
         sodipodi:rx="90.84079"
         sodipodi:ry="90.84079"
         d="m -59.821976,55.066422 c 0,50.169978 -40.670804,90.840788 -90.840794,90.840788 -50.16998,0 -90.84079,-40.67081 -90.84079,-90.840788 0,-50.1699834 40.67081,-90.84079 90.84079,-90.84079 50.16999,0 90.840794,40.6708066 90.840794,90.84079 z"
         transform="matrix(0.96341463,0,0,0.97560976,513.86212,598.22073)" />
      <path
         transform="matrix(0.91463415,0,0,0.91463415,506.51272,601.57844)"
         d="m -59.821976,55.066422 c 0,50.169978 -40.670804,90.840788 -90.840794,90.840788 -50.16998,0 -90.84079,-40.67081 -90.84079,-90.840788 0,-50.1699834 40.67081,-90.84079 90.84079,-90.84079 50.16999,0 90.840794,40.6708066 90.840794,90.84079 z"
         sodipodi:ry="90.84079"
         sodipodi:rx="90.84079"
         sodipodi:cy="55.066422"
         sodipodi:cx="-150.66277"
         id="path5768"
         style="fill:url(#linearGradient5935);fill-opacity:1;stroke:none"
         sodipodi:type="arc" />
      <g
         id="g5918"
         style="fill:#ffffff;fill-opacity:1">
        <path
           style="fill:#ffffff;fill-opacity:1;stroke-width:1.89999998;stroke-miterlimit:4;stroke-dasharray:none"
           d="m 348.66233,597.65254 c -13.04432,0 -23.60735,11.56139 -23.60735,25.82379 0,8.13855 3.44978,15.38931 8.83038,20.1227 -11.62407,7.81825 -20.62557,24.58837 -24.14433,45.37639 l 41.86476,0 c 2.91089,-15.62994 9.79664,-28.19836 18.6353,-34.14314 -3.10823,-2.73437 -5.40055,-6.54826 -6.38413,-10.91652 -0.13575,-0.0944 -0.26129,-0.20366 -0.39776,-0.29561 0.10132,-0.089 0.19838,-0.18367 0.29832,-0.2745 -0.27136,-1.37637 -0.43754,-2.79979 -0.43754,-4.26526 0,-7.33562 3.56429,-13.75185 8.90993,-17.29327 -0.79681,-13.47454 -11.04262,-24.13458 -23.56758,-24.13458 z"
           id="path4066" />
        <path
           style="fill:#ffffff;fill-opacity:1;stroke-width:1.89999998;stroke-miterlimit:4;stroke-dasharray:none"
           d="m 392.85017,623.89964 c -10.20883,0 -18.47573,9.04824 -18.47573,20.21036 0,6.36945 2.69988,12.04409 6.91089,15.74856 -9.0973,6.11877 -16.14212,19.2435 -18.89599,35.51274 l 60.92166,0 c -2.75227,-16.2577 -9.79206,-29.37195 -18.88043,-35.49622 4.2153,-3.70432 6.9109,-9.39184 6.9109,-15.76508 0,-11.16212 -8.28247,-20.21036 -18.4913,-20.21036 z"
           id="path4076" />
      </g>
      <path
         style="opacity:0.75720167;fill:url(#linearGradient5937);fill-opacity:1;stroke:none"
         d="m 368.71793,568.8464 c -45.15981,0 -81.90894,36.05581 -83.0625,80.9375 37.38657,15.04048 95.24251,25.78438 166.03125,-2.09375 -2.20992,-43.91462 -38.50517,-78.84375 -82.96875,-78.84375 z"
         id="path5770" />
    </g>
    <g
       id="g5944"
       transform="matrix(0.26118924,0,0,0.26118924,374.2093,502.80258)">
      <path
         sodipodi:type="arc"
         style="fill:#f44800;fill-opacity:1;stroke:none"
         id="path5806"
         sodipodi:cx="-150.66277"
         sodipodi:cy="55.066422"
         sodipodi:rx="90.84079"
         sodipodi:ry="90.84079"
         d="m -59.821976,55.066422 c 0,50.169978 -40.670804,90.840788 -90.840794,90.840788 -50.16998,0 -90.84079,-40.67081 -90.84079,-90.840788 0,-50.1699834 40.67081,-90.84079 90.84079,-90.84079 50.16999,0 90.840794,40.6708066 90.840794,90.84079 z"
         transform="matrix(0.96341463,0,0,0.97560976,959.20355,609.29888)" />
      <path
         transform="matrix(0.91463415,0,0,0.91463415,951.85415,612.65659)"
         d="m -59.821976,55.066422 c 0,50.169978 -40.670804,90.840788 -90.840794,90.840788 -50.16998,0 -90.84079,-40.67081 -90.84079,-90.840788 0,-50.1699834 40.67081,-90.84079 90.84079,-90.84079 50.16999,0 90.840794,40.6708066 90.840794,90.84079 z"
         sodipodi:ry="90.84079"
         sodipodi:rx="90.84079"
         sodipodi:cy="55.066422"
         sodipodi:cx="-150.66277"
         id="path5808"
         style="fill:url(#linearGradient5950);fill-opacity:1;stroke:none"
         sodipodi:type="arc" />
      <path
         id="rect5206"
         d="m 767.35332,621.8553 c -5.04268,0 -9.10232,4.05963 -9.10232,9.10232 l 0,45.96196 c 0,5.04269 4.05964,9.10232 9.10232,9.10232 l 54.21094,0 c 7.18309,10.06528 25.61947,35.83577 25.78991,35.15302 0.17295,-0.69048 0.43858,-25.06438 0.54523,-35.15302 l 8.20153,0 c 5.0427,0 9.1024,-4.05963 9.1024,-9.10232 l 0,-45.96196 c 0,-5.04269 -4.0597,-9.10232 -9.1024,-9.10232 l -88.74761,0 z m 13.51126,19.17651 c 1.27767,2e-5 2.42456,0.18358 3.43704,0.54519 1.02469,0.36164 1.86135,0.83778 2.53636,1.44594 0.687,0.60822 1.21494,1.29887 1.56446,2.03851 0.36167,0.73972 0.54516,1.4503 0.54516,2.1571 0,0.77256 -0.20693,1.4032 -0.59256,1.89632 -0.37373,0.49311 -0.91274,0.73486 -1.61187,0.73478 -0.50624,8e-5 -0.94209,-0.19805 -1.30376,-0.59256 -0.34945,-0.39451 -0.75094,-0.96507 -1.20886,-1.75409 -0.37373,-0.65749 -0.79767,-1.1937 -1.30368,-1.58821 -0.5064,-0.39443 -1.19446,-0.59256 -2.06229,-0.59256 -0.89195,0 -1.63758,0.25623 -2.22817,0.78219 -0.59066,0.50958 -0.87708,1.1475 -0.87708,1.92006 0,0.7068 0.20609,1.29382 0.64004,1.7541 0.43388,0.44381 1.01878,0.81822 1.75409,1.11405 0.73532,0.2959 1.74439,0.66302 3.03411,1.09038 1.53086,0.50958 2.78091,1.11845 3.74523,1.82524 0.97637,0.7068 1.71033,1.54277 2.20443,2.51262 0.50639,0.95339 0.75853,2.03832 0.75853,3.27115 0,1.85748 -0.33262,3.45676 -0.99549,4.7882 -0.66303,1.31498 -1.63759,2.32003 -2.9393,3.01037 -1.28987,0.67395 -2.86086,1.01931 -4.71712,1.01931 -1.77192,0 -3.28549,-0.37441 -4.55117,-1.11413 -1.26567,-0.73964 -2.218,-1.67202 -2.8208,-2.77333 -0.60258,-1.11776 -0.90068,-2.22453 -0.90068,-3.34229 0,-0.73964 0.20685,-1.37028 0.59256,-1.89632 0.38571,-0.52596 0.85532,-0.80586 1.44591,-0.80593 0.51852,7e-5 0.93169,0.17635 1.20894,0.52148 0.27724,0.34521 0.52922,0.84508 0.78219,1.46965 0.50639,1.19999 1.12611,2.08678 1.82524,2.67858 0.71112,0.59173 1.67445,0.90076 2.89189,0.90076 0.98836,0 1.79103,-0.30903 2.4178,-0.90076 0.63883,-0.60818 0.94816,-1.28964 0.94816,-2.06228 0,-1.18345 -0.33269,-2.06494 -0.99557,-2.60743 -0.65089,-0.54243 -1.71707,-1.04761 -3.22374,-1.54072 -1.69955,-0.57535 -3.09911,-1.17686 -4.1719,-1.80151 -1.06072,-0.64103 -1.89745,-1.47708 -2.53636,-2.51262 -0.63868,-1.03554 -0.97182,-2.3041 -0.97182,-3.81637 0,-1.34783 0.31016,-2.64006 0.90075,-3.84005 0.59059,-1.19989 1.46229,-2.13759 2.60743,-2.84444 1.15714,-0.72322 2.54471,-1.09036 4.1719,-1.09038 z m 15.28902,0 c 0.67509,2e-5 1.23701,0.32354 1.68302,0.94815 0.45793,0.60822 0.68738,1.45148 0.68738,2.53634 l 0,0.63997 c 0.85592,-1.39716 1.77336,-2.42396 2.74966,-3.08149 0.97645,-0.65748 2.05417,-0.99554 3.24748,-0.99557 1.24156,3e-5 2.30812,0.34536 3.2,1.01927 0.89203,0.67398 1.62583,1.69352 2.20451,3.05779 0.83165,-1.3807 1.72618,-2.40026 2.67858,-3.05779 0.95211,-0.67391 2.01913,-1.01924 3.17626,-1.01927 1.3501,3e-5 2.50814,0.36715 3.48452,1.09039 0.97637,0.72327 1.69857,1.75735 2.18076,3.10522 0.42182,1.21638 0.6399,3.12278 0.64005,5.73636 l 0,13.15567 c -2.3e-4,1.41366 -0.24106,2.46953 -0.7112,3.17633 -0.46998,0.70687 -1.07748,1.06672 -1.84883,1.06672 -0.74745,0 -1.36679,-0.35985 -1.84898,-1.06672 -0.46999,-0.72326 -0.71105,-1.77913 -0.71105,-3.17633 l 0,-11.3305 c 0,-1.44643 -0.0455,-2.58953 -0.1423,-3.46078 -0.0841,-0.87117 -0.33701,-1.6127 -0.73478,-2.20443 -0.39777,-0.59173 -0.9939,-0.87701 -1.8015,-0.87708 -0.6509,7e-5 -1.25832,0.2563 -1.84891,0.78227 -0.57861,0.52603 -1.04935,1.22206 -1.37483,2.10961 -0.36159,1.13423 -0.54516,3.14425 -0.54516,6.02081 l 0,8.9601 c 0,1.41366 -0.21739,2.46953 -0.68745,3.17633 -0.47013,0.70687 -1.10123,1.06672 -1.87258,1.06672 -0.74745,0 -1.35518,-0.35985 -1.82524,-1.06672 -0.45807,-0.7068 -0.68745,-1.76267 -0.68745,-3.17633 l 0,-10.73786 c 0,-1.69311 -0.0341,-2.99793 -0.11848,-3.93486 -0.0843,-0.93693 -0.31388,-1.70752 -0.68738,-2.29932 -0.37373,-0.60811 -0.97023,-0.90068 -1.77784,-0.90075 -1.6152,7e-5 -2.68162,0.73964 -3.20007,2.25191 -0.50616,1.51228 -0.75853,3.6913 -0.75853,6.51855 l 0,9.10233 c 0,1.3972 -0.24106,2.45307 -0.71104,3.17633 -0.45815,0.70687 -1.06588,1.06672 -1.82524,1.06672 -0.7473,0 -1.36672,-0.35985 -1.84891,-1.06672 -0.47006,-0.72326 -0.68753,-1.77913 -0.68738,-3.17633 l 0,-19.27129 c 0,-1.26567 0.19449,-2.21066 0.61623,-2.86819 0.4341,-0.65747 1.00763,-0.99554 1.70668,-0.99556 z m 37.57083,0 c 1.27766,2e-5 2.42463,0.18358 3.43711,0.54519 1.02454,0.36164 1.88502,0.83778 2.56003,1.44594 0.687,0.60822 1.19119,1.29887 1.54072,2.03851 0.36159,0.73972 0.54508,1.4503 0.54523,2.1571 -1.5e-4,0.77256 -0.18326,1.4032 -0.5689,1.89632 -0.37372,0.49311 -0.91281,0.73486 -1.61187,0.73478 -0.50631,8e-5 -0.94216,-0.19805 -1.30375,-0.59256 -0.34953,-0.39451 -0.75087,-0.96507 -1.20894,-1.75409 -0.37358,-0.65749 -0.82118,-1.1937 -1.32742,-1.58821 -0.50625,-0.39443 -1.19438,-0.59256 -2.06221,-0.59256 -0.89203,0 -1.63751,0.25623 -2.22817,0.78219 -0.59059,0.50958 -0.87709,1.1475 -0.87701,1.92006 0,0.7068 0.20609,1.29382 0.63997,1.7541 0.43395,0.44381 1.01877,0.81822 1.75409,1.11405 0.73524,0.2959 1.74438,0.66302 3.03411,1.09038 1.53086,0.50958 2.78091,1.11845 3.74522,1.82524 0.97638,0.7068 1.71025,1.54277 2.20451,2.51262 0.50624,0.95339 0.75845,2.03832 0.75853,3.27115 0,1.85748 -0.33269,3.45676 -0.99564,4.7882 -0.66296,1.31498 -1.63751,2.32003 -2.9393,3.01037 -1.28964,0.67395 -2.86078,1.01931 -4.71705,1.01931 -1.77184,0 -3.28548,-0.37441 -4.55116,-1.11413 -1.26568,-0.73964 -2.19434,-1.67202 -2.79707,-2.77333 -0.60265,-1.11776 -0.92441,-2.22453 -0.92449,-3.34229 0,-0.73964 0.20693,-1.37028 0.59264,-1.89632 0.38563,-0.52596 0.87905,-0.80586 1.46964,-0.80593 0.5183,7e-5 0.90796,0.17635 1.1852,0.52148 0.27717,0.34521 0.55282,0.84508 0.80594,1.46965 0.50624,1.19999 1.10229,2.08678 1.8015,2.67858 0.71112,0.59173 1.67437,0.90076 2.89188,0.90076 0.98836,0 1.79111,-0.30903 2.41781,-0.90076 0.63883,-0.60818 0.9719,-1.28964 0.97182,-2.06228 0,-1.18345 -0.33261,-2.06494 -0.99549,-2.60743 -0.65097,-0.54243 -1.74082,-1.04761 -3.24748,-1.54072 -1.69963,-0.57535 -3.07537,-1.17686 -4.14816,-1.80151 -1.06072,-0.64103 -1.92119,-1.47708 -2.56003,-2.51262 -0.6389,-1.03554 -0.94815,-2.3041 -0.94815,-3.81637 0,-1.34783 0.28642,-2.64006 0.877,-3.84005 0.59059,-1.19989 1.46229,-2.13759 2.60744,-2.84444 1.15713,-0.72322 2.54471,-1.09036 4.1719,-1.09038 z"
         style="fill:#ffffff;fill-opacity:1;stroke-width:1.89999998;stroke-miterlimit:4;stroke-dasharray:none" />
      <path
         style="opacity:0.75720167;fill:url(#linearGradient5952);fill-opacity:1;stroke:none"
         d="m 814.05935,579.92455 c -45.15981,0 -81.90894,36.05581 -83.0625,80.9375 37.38657,15.04048 95.24251,25.78438 166.03125,-2.09375 -2.20992,-43.91462 -38.50517,-78.84375 -82.96875,-78.84375 z"
         id="path5810" />
    </g>
    <g
       id="g5964"
       transform="matrix(0.26118924,0,0,0.26118924,350.77201,502.16778)">
      <path
         transform="matrix(0.96341463,0,0,0.97560976,305.593,855.23369)"
         d="m -59.821976,55.066422 c 0,50.169978 -40.670804,90.840788 -90.840794,90.840788 -50.16998,0 -90.84079,-40.67081 -90.84079,-90.840788 0,-50.1699834 40.67081,-90.84079 90.84079,-90.84079 50.16999,0 90.840794,40.6708066 90.840794,90.84079 z"
         sodipodi:ry="90.84079"
         sodipodi:rx="90.84079"
         sodipodi:cy="55.066422"
         sodipodi:cx="-150.66277"
         id="path5754"
         style="fill:#f44800;fill-opacity:1;stroke:none"
         sodipodi:type="arc" />
      <path
         sodipodi:type="arc"
         style="fill:url(#linearGradient5760);fill-opacity:1;stroke:none"
         id="path5756"
         sodipodi:cx="-150.66277"
         sodipodi:cy="55.066422"
         sodipodi:rx="90.84079"
         sodipodi:ry="90.84079"
         d="m -59.821976,55.066422 c 0,50.169978 -40.670804,90.840788 -90.840794,90.840788 -50.16998,0 -90.84079,-40.67081 -90.84079,-90.840788 0,-50.1699834 40.67081,-90.84079 90.84079,-90.84079 50.16999,0 90.840794,40.6708066 90.840794,90.84079 z"
         transform="matrix(0.91463415,0,0,0.91463415,298.2436,858.5914)" />
      <g
         style="fill:#eeeeee;fill-opacity:1"
         transform="matrix(0.62444668,0,0,0.61057646,-316.14227,621.45571)"
         id="g4149">
        <path
           transform="matrix(-0.26963513,-0.71803432,0.57865609,-0.3310744,482.8413,110.52503)"
           d="m -558.59375,67 a 20.68369,20.68369 0 0 0 -11.5,3.84375 l -140.0625,99.78125 a 20.68369,20.68369 0 0 0 3.40625,35.65625 l 156.4375,71.40625 a 20.68369,20.68369 0 0 0 29.1875,-20.78125 L -537.5,85.71875 A 20.68369,20.68369 0 0 0 -558.59375,67 z"
           id="path4138"
           style="fill:#ffffff;fill-opacity:1;stroke-width:1.89999998;stroke-miterlimit:4"
           inkscape:original="M -558.09375 87.6875 L -698.15625 187.46875 L -541.71875 258.875 L -558.09375 87.6875 z "
           inkscape:radius="20.681622"
           sodipodi:type="inkscape:offset" />
        <rect
           ry="74.677635"
           rx="72.9543"
           y="441.35452"
           x="801.15967"
           height="78.334312"
           width="20.366922"
           id="rect4143"
           style="fill:#ffffff;fill-opacity:1;stroke-width:1.89999998;stroke-miterlimit:4;stroke-dasharray:none" />
      </g>
      <path
         id="path5758"
         d="m 160.4488,825.85936 c -45.15981,0 -81.90894,36.05581 -83.0625,80.9375 37.38657,15.04048 95.24251,25.78438 166.03125,-2.09375 -2.20992,-43.91462 -38.50517,-78.84375 -82.96875,-78.84375 z"
         style="opacity:0.75720167;fill:url(#linearGradient5960);fill-opacity:1;stroke:none" />
    </g>
    <g
       id="g5977"
       transform="matrix(0.26118924,0,0,0.26118924,353.56905,506.21867)">
      <path
         transform="matrix(0.96341463,0,0,0.97560976,542.6653,839.72429)"
         d="m -59.821976,55.066422 c 0,50.169978 -40.670804,90.840788 -90.840794,90.840788 -50.16998,0 -90.84079,-40.67081 -90.84079,-90.840788 0,-50.1699834 40.67081,-90.84079 90.84079,-90.84079 50.16999,0 90.840794,40.6708066 90.840794,90.84079 z"
         sodipodi:ry="90.84079"
         sodipodi:rx="90.84079"
         sodipodi:cy="55.066422"
         sodipodi:cx="-150.66277"
         id="path5778"
         style="fill:#f44800;fill-opacity:1;stroke:none"
         sodipodi:type="arc" />
      <path
         sodipodi:type="arc"
         style="fill:url(#linearGradient5784);fill-opacity:1;stroke:none"
         id="path5780"
         sodipodi:cx="-150.66277"
         sodipodi:cy="55.066422"
         sodipodi:rx="90.84079"
         sodipodi:ry="90.84079"
         d="m -59.821976,55.066422 c 0,50.169978 -40.670804,90.840788 -90.840794,90.840788 -50.16998,0 -90.84079,-40.67081 -90.84079,-90.840788 0,-50.1699834 40.67081,-90.84079 90.84079,-90.84079 50.16999,0 90.840794,40.6708066 90.840794,90.84079 z"
         transform="matrix(0.91463415,0,0,0.91463415,535.3159,843.082)" />
      <g
         style="fill:#ffffff;fill-opacity:1"
         transform="matrix(0.75852693,0,0,0.75852693,-178.8537,340.66819)"
         id="g4220">
        <path
           style="fill:#ffffff;fill-opacity:1;stroke-width:1.89999998;stroke-miterlimit:4;stroke-dasharray:none"
           d="m 729.75,660.29895 c -6.59191,0 -11.875,5.3085 -11.875,11.90625 l 0,25.1875 12.71875,0 0,-14.125 c 0,-6.59775 5.31434,-11.90625 11.90625,-11.90625 l 25.5,0 c 6.59191,0 11.90625,5.3085 11.90625,11.90625 l 0,14.125 12.1875,0 0,-25.1875 c 0,-6.59775 -5.31434,-11.90625 -11.90625,-11.90625 l -50.4375,0 z"
           id="rect4189" />
        <path
           style="fill:#ffffff;fill-opacity:1;stroke-width:1.89999998;stroke-miterlimit:4;stroke-dasharray:none"
           d="m 716.46875,395.125 c -6.59191,0 -11.90625,5.3085 -11.90625,11.90625 l 0,14.96875 c 0,6.59775 5.31434,11.90625 11.90625,11.90625 l 75.90625,0 c 5.87704,0 10.73473,-4.22117 11.71875,-9.8125 l -11.59375,0 c -6.59191,0 -11.90625,-3.39377 -11.90625,-7.625 0,-4.23123 5.31434,-7.65625 11.90625,-7.65625 l 11.78125,0 0,-1.78125 c 0,-6.59775 -5.31434,-11.90625 -11.90625,-11.90625 l -75.90625,0 z"
           transform="translate(0,308.2677)"
           id="rect4193" />
        <path
           id="path4218"
           d="m 716.46875,749.21827 c -6.59191,0 -11.90625,5.3085 -11.90625,11.90625 l 0,14.96875 c 0,6.59775 5.31434,11.90625 11.90625,11.90625 l 75.90625,0 c 5.87704,0 10.73473,-4.22117 11.71875,-9.8125 l -11.59375,0 c -6.59191,0 -11.90625,-3.39377 -11.90625,-7.625 0,-4.23123 5.31434,-7.65625 11.90625,-7.65625 l 11.78125,0 0,-1.78125 c 0,-6.59775 -5.31434,-11.90625 -11.90625,-11.90625 l -75.90625,0 z"
           style="fill:#ffffff;fill-opacity:1;stroke-width:1.89999998;stroke-miterlimit:4;stroke-dasharray:none" />
      </g>
      <path
         id="path5782"
         d="m 397.52111,810.34996 c -45.15981,0 -81.90894,36.05581 -83.0625,80.9375 37.38657,15.04048 95.24251,25.78438 166.03125,-2.09375 -2.20992,-43.91462 -38.50517,-78.84375 -82.96875,-78.84375 z"
         style="opacity:0.75720167;fill:url(#linearGradient5973);fill-opacity:1;stroke:none" />
    </g>
    <g
       id="g5991"
       transform="matrix(0.26118924,0,0,0.26118924,361.57439,505.63997)">
      <path
         transform="matrix(0.96341463,0,0,0.97560976,759.79694,841.93992)"
         d="m -59.821976,55.066422 c 0,50.169978 -40.670804,90.840788 -90.840794,90.840788 -50.16998,0 -90.84079,-40.67081 -90.84079,-90.840788 0,-50.1699834 40.67081,-90.84079 90.84079,-90.84079 50.16999,0 90.840794,40.6708066 90.840794,90.84079 z"
         sodipodi:ry="90.84079"
         sodipodi:rx="90.84079"
         sodipodi:cy="55.066422"
         sodipodi:cx="-150.66277"
         id="path5818"
         style="fill:#f44800;fill-opacity:1;stroke:none"
         sodipodi:type="arc" />
      <path
         sodipodi:type="arc"
         style="fill:url(#linearGradient5998);fill-opacity:1;stroke:none"
         id="path5820"
         sodipodi:cx="-150.66277"
         sodipodi:cy="55.066422"
         sodipodi:rx="90.84079"
         sodipodi:ry="90.84079"
         d="m -59.821976,55.066422 c 0,50.169978 -40.670804,90.840788 -90.840794,90.840788 -50.16998,0 -90.84079,-40.67081 -90.84079,-90.840788 0,-50.1699834 40.67081,-90.84079 90.84079,-90.84079 50.16999,0 90.840794,40.6708066 90.840794,90.84079 z"
         transform="matrix(0.91463415,0,0,0.91463415,752.44754,845.29763)" />
      <g
         transform="matrix(1.5465073,0,0,0.96512729,-486.38822,447.6362)"
         id="text4182"
         style="font-size:40px;font-style:normal;font-variant:normal;font-weight:bold;font-stretch:normal;fill:#ffffff;fill-opacity:1;stroke:none;font-family:Arial Rounded MT Bold;-inkscape-font-specification:'Arial Rounded MT Bold, Bold'">
        <path
           id="path4187"
           style="font-size:144px;fill:#ffffff;fill-opacity:1;font-family:Arial Rounded MT Bold;-inkscape-font-specification:'Arial Rounded MT Bold, Bold'"
           d="m 721.49341,450.78937 0,55.47656 c -3e-5,3.84376 -0.91409,6.75 -2.74219,8.71875 -1.82815,1.96875 -4.14846,2.95312 -6.96094,2.95313 -2.81251,-10e-6 -5.10939,-1.00782 -6.89062,-3.02344 -1.73439,-2.01562 -2.60157,-4.89843 -2.60156,-8.64844 l 0,-54.91406 c -10e-6,-3.79681 0.86717,-6.65618 2.60156,-8.57813 1.78123,-1.9218 4.07811,-2.88273 6.89062,-2.88281 2.81248,8e-5 5.13279,0.96101 6.96094,2.88281 1.8281,1.92195 2.74216,4.59382 2.74219,8.01563 m -9.49219,-19.82813 c -2.67189,9e-5 -4.96876,-0.82022 -6.89062,-2.46093 -1.87502,-1.64054 -2.81251,-3.96085 -2.8125,-6.96094 -10e-6,-2.71865 0.96092,-4.94522 2.88281,-6.67969 1.96873,-1.78115 4.24217,-2.67177 6.82031,-2.67187 2.48435,10e-5 4.68748,0.79697 6.60938,2.39062 1.92184,1.59385 2.88278,3.91416 2.88281,6.96094 -3e-5,2.95321 -0.93753,5.27352 -2.8125,6.96094 -1.87503,1.64071 -4.10159,2.46102 -6.67969,2.46093" />
      </g>
      <path
         id="path5822"
         d="m 614.65274,812.56559 c -45.15981,0 -81.90894,36.05581 -83.0625,80.9375 37.38657,15.04048 95.24251,25.78438 166.03125,-2.09375 -2.20992,-43.91462 -38.50517,-78.84375 -82.96875,-78.84375 z"
         style="opacity:0.75720167;fill:url(#linearGradient6000);fill-opacity:1;stroke:none" />
    </g>
    <g
       id="g6025"
       transform="matrix(0.26118924,0,0,0.26118924,367.26492,503.90388)">
      <path
         transform="matrix(0.96341463,0,0,0.97560976,985.79109,848.58681)"
         d="m -59.821976,55.066422 c 0,50.169978 -40.670804,90.840788 -90.840794,90.840788 -50.16998,0 -90.84079,-40.67081 -90.84079,-90.840788 0,-50.1699834 40.67081,-90.84079 90.84079,-90.84079 50.16999,0 90.840794,40.6708066 90.840794,90.84079 z"
         sodipodi:ry="90.84079"
         sodipodi:rx="90.84079"
         sodipodi:cy="55.066422"
         sodipodi:cx="-150.66277"
         id="path5798"
         style="fill:#f44800;fill-opacity:1;stroke:none"
         sodipodi:type="arc" />
      <path
         sodipodi:type="arc"
         style="fill:url(#linearGradient6034);fill-opacity:1;stroke:none"
         id="path5800"
         sodipodi:cx="-150.66277"
         sodipodi:cy="55.066422"
         sodipodi:rx="90.84079"
         sodipodi:ry="90.84079"
         d="m -59.821976,55.066422 c 0,50.169978 -40.670804,90.840788 -90.840794,90.840788 -50.16998,0 -90.84079,-40.67081 -90.84079,-90.840788 0,-50.1699834 40.67081,-90.84079 90.84079,-90.84079 50.16999,0 90.840794,40.6708066 90.840794,90.84079 z"
         transform="matrix(0.91463415,0,0,0.91463415,978.44169,851.94452)" />
      <g
         style="fill:#ffffff;fill-opacity:1"
         transform="matrix(0.75852693,0,0,0.75852693,229.50072,115.60937)"
         id="g5406">
        <path
           id="path4263"
           d="m 740.80508,980.32293 c -6.59191,0 -11.875,5.3085 -11.875,11.90625 l 0,25.18752 12.71875,0 0,-14.125 c 0,-6.59777 5.31434,-11.90627 11.90625,-11.90627 l 25.5,0 c 6.59191,0 11.90625,5.3085 11.90625,11.90627 l 0,14.125 12.1875,0 0,-25.18752 c 0,-6.59775 -5.31434,-11.90625 -11.90625,-11.90625 l -50.4375,0 z"
           style="fill:#ffffff;fill-opacity:1;stroke-width:1.89999998;stroke-miterlimit:4;stroke-dasharray:none" />
        <path
           id="path4265"
           d="m 790.66926,1022.3089 c -6.59191,0 -11.90625,5.3085 -11.90625,11.9062 l 0,14.9688 c 0,6.5977 5.31434,11.9062 11.90625,11.9062 l 75.90625,0 c 5.87704,0 10.73473,-4.2211 11.71875,-9.8125 l -11.59375,0 c -6.59191,0 -11.90625,-3.3937 -11.90625,-7.625 0,-4.2312 5.31434,-7.6562 11.90625,-7.6562 l 11.78125,0 0,-1.7813 c 0,-6.5977 -5.31434,-11.9062 -11.90625,-11.9062 l -75.90625,0 z"
           style="fill:#ffffff;fill-opacity:1;stroke-width:1.89999998;stroke-miterlimit:4;stroke-dasharray:none" />
        <path
           style="fill:#ffffff;fill-opacity:1;stroke-width:1.89999998;stroke-miterlimit:4;stroke-dasharray:none"
           d="m 790.66926,1068.1344 c -6.59191,0 -11.90625,5.3085 -11.90625,11.9063 l 0,14.9687 c 0,6.5978 5.31434,11.9063 11.90625,11.9063 l 75.90625,0 c 5.87704,0 10.73473,-4.2212 11.71875,-9.8125 l -11.59375,0 c -6.59191,0 -11.90625,-3.3938 -11.90625,-7.625 0,-4.2312 5.31434,-7.6563 11.90625,-7.6563 l 11.78125,0 0,-1.7812 c 0,-6.5978 -5.31434,-11.9063 -11.90625,-11.9063 l -75.90625,0 z"
           id="path4267" />
      </g>
      <path
         id="path5802"
         d="m 840.64689,819.21248 c -45.15981,0 -81.90894,36.05581 -83.0625,80.9375 37.38657,15.04048 95.24251,25.78438 166.03125,-2.09375 -2.20992,-43.91462 -38.50517,-78.84375 -82.96875,-78.84375 z"
         style="opacity:0.75720167;fill:url(#linearGradient6036);fill-opacity:1;stroke:none" />
    </g>
    <g
       id="g6082"
       transform="matrix(0.26118924,0,0,0.26118924,365.04658,511.48306)">
      <path
         sodipodi:type="arc"
         style="fill:#f44800;fill-opacity:1;stroke:none"
         id="path5790"
         sodipodi:cx="-150.66277"
         sodipodi:cy="55.066422"
         sodipodi:rx="90.84079"
         sodipodi:ry="90.84079"
         d="m -59.821976,55.066422 c 0,50.169978 -40.670804,90.840788 -90.840794,90.840788 -50.16998,0 -90.84079,-40.67081 -90.84079,-90.840788 0,-50.1699834 40.67081,-90.84079 90.84079,-90.84079 50.16999,0 90.840794,40.6708066 90.840794,90.84079 z"
         transform="matrix(0.96341463,0,0,0.97560976,746.50317,576.06444)" />
      <path
         transform="matrix(0.91463415,0,0,0.91463415,739.15377,579.42215)"
         d="m -59.821976,55.066422 c 0,50.169978 -40.670804,90.840788 -90.840794,90.840788 -50.16998,0 -90.84079,-40.67081 -90.84079,-90.840788 0,-50.1699834 40.67081,-90.84079 90.84079,-90.84079 50.16999,0 90.840794,40.6708066 90.840794,90.84079 z"
         sodipodi:ry="90.84079"
         sodipodi:rx="90.84079"
         sodipodi:cy="55.066422"
         sodipodi:cx="-150.66277"
         id="path5792"
         style="fill:url(#linearGradient6092);fill-opacity:1;stroke:none"
         sodipodi:type="arc" />
      <path
         d="m 604.45279,572.83726 c -15.54815,-0.76361 -30.46093,4.56898 -41.98603,15.02027 -11.54228,10.4617 -18.31062,24.78011 -19.07371,40.31716 -0.76365,15.54814 4.56904,30.46093 15.03117,41.99213 10.44544,11.53032 24.76389,18.29882 40.31205,19.06242 32.10102,1.5766 59.4781,-23.24782 61.0542,-55.33768 1.57606,-32.09001 -23.23666,-59.4777 -55.33768,-61.0543 z m 46.05096,60.59812 c -0.26717,5.43993 -1.42878,10.62446 -3.30596,15.42328 -3.90897,-0.50912 -7.76672,-1.15493 -11.57268,-1.94835 3.90428,-9.47901 5.23811,-19.86885 3.75851,-30.30232 -1.41002,-9.92365 -5.27488,-18.92175 -10.86994,-26.45242 13.96951,9.22734 22.86932,25.37812 21.99007,43.27981 z M 613.1299,592.61624 c -9.57661,10.99766 -17.75003,23.22162 -24.23602,36.43546 -5.48603,-3.17951 -10.76726,-6.67731 -15.82313,-10.45902 4.12421,-7.83786 10.30713,-14.42832 18.08172,-19.09895 6.90941,-4.16219 14.44168,-6.39074 21.97743,-6.87749 z m -28.10341,44.93703 c -4.13635,9.78477 -7.37859,20.05864 -9.59916,30.71655 -0.34182,-0.51754 -0.67755,-1.04601 -0.99636,-1.57918 -6.74427,-11.20943 -8.71251,-24.38224 -5.55817,-37.05866 0.17504,-0.73145 0.38174,-1.42801 0.59008,-2.15778 4.9905,3.63933 10.18366,7.00492 15.56361,10.07907 z m 3.55875,35.73637 c -1.5859,0.2281 -3.16692,0.3563 -4.73962,0.4294 2.03399,-11.05102 5.20986,-21.6732 9.41114,-31.76085 9.04276,4.51733 18.54161,8.24451 28.42878,11.08936 -0.27443,0.376 -0.55021,0.77984 -0.83629,1.16639 -7.86413,10.45864 -19.31394,17.22448 -32.26401,19.0757 z m 8.50427,-39.80677 c 6.52828,-13.39544 14.88981,-25.71035 24.75451,-36.68275 4.2686,6.10228 7.21205,13.24115 8.32828,21.10275 1.31426,9.26791 -0.012,18.48402 -3.73746,26.81446 -10.23571,-2.77302 -20.05435,-6.56042 -29.34533,-11.23446 z m -28.37903,-38.72485 c 9.69091,-8.7943 22.2193,-13.27583 35.2862,-12.63404 2.95309,0.14503 5.83678,0.57049 8.62102,1.20795 -9.00884,0.57026 -18.00859,3.222 -26.25945,8.18642 -8.73245,5.25219 -15.77869,12.54042 -20.65986,21.17572 -2.26524,-1.91407 -4.47781,-3.88115 -6.64217,-5.92387 2.53275,-4.43837 5.7644,-8.49178 9.65426,-12.01218 z m -16.02519,33.873 c 0.21839,-4.44625 1.03691,-8.76288 2.39098,-12.88077 2.14649,1.95283 4.34013,3.85218 6.58622,5.7042 -0.70105,1.92415 -1.31016,3.903 -1.82151,5.93115 -2.49618,10.03781 -2.27783,20.32025 0.4958,30.01043 -5.45799,-8.50877 -8.15721,-18.468 -7.65149,-28.76501 z m 47.78545,51.34092 c 11.02205,-3.721 20.67743,-10.65846 27.81635,-20.17342 1.04785,-1.39524 2.03101,-2.83257 2.9439,-4.31238 3.78159,0.83673 7.59718,1.54717 11.46878,2.13798 -8.98102,13.82582 -24.69408,22.76382 -42.22903,22.34782 z"
         id="path244"
         style="fill:#ffffff;fill-opacity:1" />
      <path
         style="opacity:0.75720167;fill:url(#linearGradient6094);fill-opacity:1;stroke:none"
         d="m 601.35897,546.69011 c -45.15981,0 -81.90894,36.05581 -83.0625,80.9375 37.38657,15.04048 95.24251,25.78438 166.03125,-2.09375 -2.20992,-43.91462 -38.50517,-78.84375 -82.96875,-78.84375 z"
         id="path5794" />
    </g>
  </g>
</svg>
