<?xml version="1.0" encoding="UTF-8" standalone="no"?>
<!-- Created with Inkscape (http://www.inkscape.org/) -->
<svg
   xmlns:dc="http://purl.org/dc/elements/1.1/"
   xmlns:cc="http://web.resource.org/cc/"
   xmlns:rdf="http://www.w3.org/1999/02/22-rdf-syntax-ns#"
   xmlns:svg="http://www.w3.org/2000/svg"
   xmlns="http://www.w3.org/2000/svg"
   xmlns:sodipodi="http://inkscape.sourceforge.net/DTD/sodipodi-0.dtd"
   xmlns:inkscape="http://www.inkscape.org/namespaces/inkscape"
   width="128.00000px"
   height="128.00000px"
   id="svg2"
   sodipodi:version="0.32"
   inkscape:version="0.43"
   sodipodi:docbase="/home/nicu/Desktop/svg/silhouettes"
   sodipodi:docname="silh35.svg">
  <defs
     id="defs4" />
  <sodipodi:namedview
     id="base"
     pagecolor="#ffffff"
     bordercolor="#666666"
     borderopacity="1.0"
     inkscape:pageopacity="0.0"
     inkscape:pageshadow="2"
     inkscape:zoom="1"
     inkscape:cx="64"
     inkscape:cy="64"
     inkscape:document-units="px"
     inkscape:current-layer="layer1"
     inkscape:window-width="750"
     inkscape:window-height="542"
     inkscape:window-x="137"
     inkscape:window-y="58" />
  <g
     inkscape:label="Layer 1"
     inkscape:groupmode="layer"
     id="layer1">
    <path
       style="fill:#000000"
       d="M 94.982898,49.349186 C 93.886629,49.341165 92.854957,49.86658 91.900011,50.482108 C 90.744423,51.016379 90.129598,51.434712 89.345617,52.219459 C 88.7044,52.69242 87.623396,53.588122 87.599155,53.637892 C 86.539818,54.059664 86.45424,55.470984 85.263452,55.618231 C 84.84237,55.416689 84.506481,55.034735 83.942215,54.76474 C 82.479047,53.876433 80.737785,53.482409 79.03997,53.571071 C 77.612794,53.600306 76.43949,55.031976 75.25242,55.855143 C 74.658113,57.487965 73.048338,57.423266 71.926548,58.242478 C 70.227713,58.787797 69.146409,60.203446 67.889939,61.288921 C 67.36276,62.512313 65.813449,63.079824 64.968028,63.78864 C 63.55668,63.982445 62.802668,65.437329 61.447767,65.407535 C 59.881052,66.41941 57.804076,65.401539 57.043643,63.733969 C 56.318274,63.137815 56.228436,62.325718 55.476379,61.516717 C 54.623108,60.220581 54.210054,59.519274 53.125488,58.409531 C 52.475343,57.369119 52.403704,57.246762 51.664535,56.414008 C 51.756589,55.842304 46.966221,52.502658 46.971864,52.268057 C 45.96734,51.770427 44.651076,50.52196 43.166093,50.825326 C 41.212556,50.767577 39.312761,52.031069 38.731593,53.93555 C 38.52797,54.850722 38.357238,57.202491 38.616176,58.409531 C 39.108395,59.840619 38.567573,60.878718 36.884896,60.471879 C 35.34659,60.37217 34.85902,61.945586 34.221163,62.813659 C 34.057313,63.163702 33.293421,65.023662 32.310686,67.439508 C 31.697481,68.347443 30.157671,72.940007 29.473821,74.346392 C 29.48862,74.345323 29.50647,74.325776 29.522414,74.319054 C 27.316798,79.781768 25.209244,85.027414 25.37343,84.612559 C 24.542341,86.239792 23.149228,87.60254 22.554787,89.311305 C 22.284256,88.937009 21.210809,92.666256 20.650382,93.928043 C 19.319409,94.87857 19.472438,96.352357 19.171203,97.357186 C 19.181988,97.359538 19.462611,98.632235 18.736867,99.17654 C 17.570535,100.05129 17.570535,100.34288 17.570535,100.34288 C 17.570535,100.34288 17.473339,100.92604 18.250894,100.92604 C 19.028448,100.92604 18.834062,101.7036 18.834062,101.7036 C 18.834062,101.7036 23.387093,99.91754 24.495641,98.119548 C 25.02021,97.742055 25.264384,96.403594 25.771318,96.32449 C 25.818797,95.743207 26.672564,94.951337 27.693944,94.070793 C 29.169199,93.026867 29.954312,94.428788 29.747177,95.859776 C 29.351284,97.784658 31.111735,97.264116 30.643192,95.783851 C 30.366117,94.434844 30.263992,93.073548 31.1079,92.218031 C 31.741591,91.320193 32.037012,89.962478 31.171686,89.09262 C 29.253669,88.234582 30.438151,86.414777 31.691069,85.432633 C 32.776512,84.436738 33.85344,82.928502 34.98353,82.000453 C 35.929535,80.652655 37.250883,79.502321 38.093754,78.194684 C 38.840365,77.186962 39.467441,75.72391 39.928301,74.413212 C 40.475218,73.550324 39.898243,70.66786 40.289741,71.041777 C 41.037153,71.993988 40.648823,74.06874 41.052113,75.439828 C 41.439843,76.652292 41.26481,78.204565 41.74766,79.564519 C 42.291301,81.313642 41.81372,80.075073 41.963311,81.162156 C 42.026695,81.613306 42.201346,82.016332 42.370311,82.276852 C 42.464911,82.963381 42.820296,84.289132 42.926142,84.633818 C 43.6945,84.915615 43.160082,86.379673 43.591318,87.133543 C 43.382329,87.080582 42.84494,88.707244 43.093195,89.059203 C 42.979259,89.282256 42.655006,90.028431 42.619372,90.653807 C 41.213779,92.383334 43.806231,92.686578 44.97634,92.184614 C 46.265254,91.310013 47.513437,90.128521 48.408518,89.135138 C 49.508371,87.895755 47.922419,86.493891 47.870913,85.128902 C 47.774809,84.613814 48.225274,81.725245 48.344736,82.945065 C 48.603289,82.792501 49.084197,84.884767 49.915034,84.828207 C 52.442676,85.486522 50.46967,82.749326 49.839099,81.869851 C 48.964948,81.432386 49.264415,78.089429 49.833027,79.50681 C 50.777021,79.591743 51.469147,80.522841 52.551435,80.94347 C 54.004314,81.879515 55.697821,82.690638 57.013267,83.680094 C 58.77809,84.696686 60.843843,84.693949 62.814567,84.588262 C 64.214091,84.552267 66.018924,83.572316 66.942291,83.315622 C 67.824009,83.111287 68.518635,82.243529 69.302298,81.915407 C 70.541299,81.023708 71.091939,79.910359 72.105748,78.969204 C 72.393526,78.236104 72.823231,77.665519 72.998724,77.128581 C 73.268101,75.962719 73.923446,74.821956 74.474865,73.726775 C 75.092397,73.188463 75.313543,72.694802 76.008715,71.989423 C 77.024434,71.297877 78.794381,70.546657 80.206302,70.081985 C 81.595826,69.46606 83.188534,69.301324 84.595237,69.170785 C 87.257463,69.298697 89.754855,68.17199 92.410283,68.341595 C 94.126853,68.498682 95.799436,68.39077 97.506921,68.241361 C 98.257753,68.69584 98.680293,68.883209 99.593558,69.091812 C 101.07194,69.437318 99.738886,68.486878 99.417396,68.712151 C 98.615128,67.994842 100.52283,68.41088 99.988419,68.696962 C 101.22087,68.731996 101.77174,70.161808 103.33251,69.805586 C 105.60645,69.9708 100.64911,68.67384 102.85565,69.116111 C 103.55687,68.979044 105.079,69.226598 105.45257,68.742522 C 105.55772,68.532317 106.79821,68.82866 106.74343,68.463089 C 107.32947,68.425638 105.64471,67.335711 106.54296,67.008208 C 107.69771,66.269152 108.62374,65.668848 109.85973,65.088616 C 111.31746,64.817841 112.43283,64.283236 113.28887,62.862258 C 114.13766,61.537267 114.25784,59.922287 114.56455,58.379161 C 114.56144,57.043461 115.33216,57.139488 115.29655,56.644848 C 115.98106,56.235588 116.30681,55.235616 116.77876,54.330402 C 116.50619,53.373824 116.49663,52.252426 115.62761,52.003809 C 115.86943,51.172275 114.40346,51.276224 114.18791,50.409212 C 113.47933,50.296857 112.66306,51.101179 111.47255,50.081181 C 111.43726,49.343648 110.09769,50.199241 110.91672,50.913408 C 110.94501,52.087218 107.85993,50.976889 106.80417,51.812459 C 104.92535,51.331086 102.93512,51.225844 101.10919,50.609676 C 99.432639,50.067861 97.818384,49.803021 96.100633,49.549648 C 95.721174,49.41193 95.348326,49.351858 94.982898,49.349186 z M 107.64248,54.625023 C 108.39203,54.62111 109.40962,54.898095 109.99641,54.995577 C 110.7692,55.174331 111.56728,57.668 110.65854,58.184769 C 110.58318,58.962601 109.3299,59.984725 108.70251,60.651083 C 108.8755,60.553032 107.37076,61.172868 106.69483,61.124907 C 106.45879,61.138559 106.12216,61.327039 105.90513,61.137055 C 106.3561,60.645806 106.40153,59.603815 106.77684,59.357179 C 107.85294,58.889415 108.06237,57.104513 107.60299,55.964484 C 107.63251,55.514632 107.43479,55.406966 106.73736,55.032025 C 106.84015,54.731093 107.19275,54.627371 107.64248,54.625023 z M 106.83759,55.809579 C 106.9801,55.720922 107.293,56.122099 107.2051,56.444384 C 107.36667,57.371581 107.38393,57.631664 106.98642,58.540137 C 106.16434,59.837643 107.23893,56.895449 106.88922,56.61751 C 106.72761,56.09159 106.75208,55.862777 106.83759,55.809579 z M 103.8519,67.822212 C 104.4225,67.851711 105.02934,68.067872 105.34627,68.621027 C 104.42966,68.804884 103.44977,68.386008 102.57015,68.141131 C 102.74575,67.948884 103.28129,67.792713 103.8519,67.822212 z M 101.84726,68.812379 C 101.87159,68.809404 101.91068,68.81638 101.97179,68.836678 C 102.28451,69.321815 101.67686,68.833224 101.84726,68.812379 z M 118.28223,75.886318 C 118.26192,75.883132 118.23705,76.024621 118.21237,76.439111 C 118.36295,77.215771 118.34318,75.895872 118.28223,75.886318 z "
       id="path1376"
       sodipodi:nodetypes="cccccccccccccccccccccccccccccscsccccccccccccccccccccccccccccccccccccccccccccccccccccccccccccccccccccccccccccccccccccccc" />
  </g>
  <metadata
     id="metadata7">
    <rdf:RDF>
      <cc:Work
         rdf:about="">
        <dc:title>woman silhouette</dc:title>
        <dc:description />
        <dc:subject>
          <rdf:Bag>
            <rdf:li>people</rdf:li>
            <rdf:li> woman</rdf:li>
            <rdf:li> silhouette</rdf:li>
          </rdf:Bag>
        </dc:subject>
        <dc:publisher>
          <cc:Agent>
            <dc:title />
          </cc:Agent>
        </dc:publisher>
        <dc:creator>
          <cc:Agent>
            <dc:title>Nicu Buculei</dc:title>
          </cc:Agent>
        </dc:creator>
        <dc:rights>
          <cc:Agent>
            <dc:title>Nicu Buculei</dc:title>
          </cc:Agent>
        </dc:rights>
        <dc:date />
        <dc:format>image/svg+xml</dc:format>
        <dc:type
           rdf:resource="http://purl.org/dc/dcmitype/StillImage" />
        <cc:license
           rdf:resource="http://web.resource.org/cc/PublicDomain" />
        <dc:language>en</dc:language>
      </cc:Work>
      <cc:License
         rdf:about="http://web.resource.org/cc/PublicDomain">
        <cc:permits
           rdf:resource="http://web.resource.org/cc/Reproduction" />
        <cc:permits
           rdf:resource="http://web.resource.org/cc/Distribution" />
        <cc:permits
           rdf:resource="http://web.resource.org/cc/DerivativeWorks" />
      </cc:License>
    </rdf:RDF>
  </metadata>
</svg>
